<?xml version="1.0" encoding="UTF-8" standalone="no"?>
<!DOCTYPE svg PUBLIC "-//W3C//DTD SVG 1.1//EN"
 "http://www.w3.org/Graphics/SVG/1.1/DTD/svg11.dtd">
<!-- Generated by graphviz version 2.43.0 (0)
 -->
<!-- Title: iohdlc_architecture_modules Pages: 1 -->
<svg width="607pt" height="424pt"
 viewBox="0.00 0.00 606.50 424.00" xmlns="http://www.w3.org/2000/svg" xmlns:xlink="http://www.w3.org/1999/xlink">
<g id="graph0" class="graph" transform="scale(1 1) rotate(0) translate(4 420)">
<title>iohdlc_architecture_modules</title>
<!-- App -->
<g id="node1" class="node">
<title>App</title>
<path fill="#f7fbff" stroke="#4d6a86" stroke-width="1.2" d="M272,-416C272,-416 209,-416 209,-416 203,-416 197,-410 197,-404 197,-404 197,-392 197,-392 197,-386 203,-380 209,-380 209,-380 272,-380 272,-380 278,-380 284,-386 284,-392 284,-392 284,-404 284,-404 284,-410 278,-416 272,-416"/>
<text text-anchor="middle" x="240.5" y="-401.2" font-family="Helvetica,sans-Serif" font-size="11.00">Application</text>
<text text-anchor="middle" x="240.5" y="-389.2" font-family="Helvetica,sans-Serif" font-size="11.00">blocking API</text>
</g>
<!-- API -->
<g id="node2" class="node">
<title>API</title>
<path fill="#f7fbff" stroke="#4d6a86" stroke-width="1.2" d="M282.5,-340C282.5,-340 198.5,-340 198.5,-340 192.5,-340 186.5,-334 186.5,-328 186.5,-328 186.5,-316 186.5,-316 186.5,-310 192.5,-304 198.5,-304 198.5,-304 282.5,-304 282.5,-304 288.5,-304 294.5,-310 294.5,-316 294.5,-316 294.5,-328 294.5,-328 294.5,-334 288.5,-340 282.5,-340"/>
<text text-anchor="middle" x="240.5" y="-325.2" font-family="Helvetica,sans-Serif" font-size="11.00">Public API</text>
<text text-anchor="middle" x="240.5" y="-313.2" font-family="Helvetica,sans-Serif" font-size="11.00">include/ioHdlc.h</text>
</g>
<!-- App&#45;&gt;API -->
<g id="edge1" class="edge">
<title>App&#45;&gt;API</title>
<path fill="none" stroke="#5a7088" stroke-width="1.1" d="M240.5,-379.99C240.5,-379.99 240.5,-348.15 240.5,-348.15"/>
<polygon fill="#5a7088" stroke="#5a7088" stroke-width="1.1" points="243.3,-348.15 240.5,-340.15 237.7,-348.15 243.3,-348.15"/>
</g>
<!-- Core -->
<g id="node3" class="node">
<title>Core</title>
<path fill="#f7fbff" stroke="#4d6a86" stroke-width="1.2" d="M285.5,-264C285.5,-264 195.5,-264 195.5,-264 189.5,-264 183.5,-258 183.5,-252 183.5,-252 183.5,-240 183.5,-240 183.5,-234 189.5,-228 195.5,-228 195.5,-228 285.5,-228 285.5,-228 291.5,-228 297.5,-234 297.5,-240 297.5,-240 297.5,-252 297.5,-252 297.5,-258 291.5,-264 285.5,-264"/>
<text text-anchor="middle" x="240.5" y="-249.2" font-family="Helvetica,sans-Serif" font-size="11.00">Protocol core</text>
<text text-anchor="middle" x="240.5" y="-237.2" font-family="Helvetica,sans-Serif" font-size="11.00">src/ioHdlc_core.c</text>
</g>
<!-- API&#45;&gt;Core -->
<g id="edge2" class="edge">
<title>API&#45;&gt;Core</title>
<path fill="none" stroke="#5a7088" stroke-width="1.1" d="M240.5,-303.99C240.5,-303.99 240.5,-272.15 240.5,-272.15"/>
<polygon fill="#5a7088" stroke="#5a7088" stroke-width="1.1" points="243.3,-272.15 240.5,-264.15 237.7,-272.15 243.3,-272.15"/>
</g>
<!-- Frames -->
<g id="node4" class="node">
<title>Frames</title>
<path fill="#f7fbff" stroke="#4d6a86" stroke-width="1.2" d="M356.5,-188C356.5,-188 210.5,-188 210.5,-188 204.5,-188 198.5,-182 198.5,-176 198.5,-176 198.5,-164 198.5,-164 198.5,-158 204.5,-152 210.5,-152 210.5,-152 356.5,-152 356.5,-152 362.5,-152 368.5,-158 368.5,-164 368.5,-164 368.5,-176 368.5,-176 368.5,-182 362.5,-188 356.5,-188"/>
<text text-anchor="middle" x="283.5" y="-173.2" font-family="Helvetica,sans-Serif" font-size="11.00">Frames and queues</text>
<text text-anchor="middle" x="283.5" y="-161.2" font-family="Helvetica,sans-Serif" font-size="11.00">frame + ll + queue helpers</text>
</g>
<!-- Core&#45;&gt;Frames -->
<g id="edge3" class="edge">
<title>Core&#45;&gt;Frames</title>
<path fill="none" stroke="#5a7088" stroke-width="1.1" d="M248,-227.99C248,-227.99 248,-196.15 248,-196.15"/>
<polygon fill="#5a7088" stroke="#5a7088" stroke-width="1.1" points="250.8,-196.15 248,-188.15 245.2,-196.15 250.8,-196.15"/>
</g>
<!-- Pool -->
<g id="node5" class="node">
<title>Pool</title>
<path fill="#f7fbff" stroke="#4d6a86" stroke-width="1.2" d="M154,-188C154,-188 31,-188 31,-188 25,-188 19,-182 19,-176 19,-176 19,-164 19,-164 19,-158 25,-152 31,-152 31,-152 154,-152 154,-152 160,-152 166,-158 166,-164 166,-164 166,-176 166,-176 166,-182 160,-188 154,-188"/>
<text text-anchor="middle" x="92.5" y="-173.2" font-family="Helvetica,sans-Serif" font-size="11.00">Frame pool</text>
<text text-anchor="middle" x="92.5" y="-161.2" font-family="Helvetica,sans-Serif" font-size="11.00">allocation and refcount</text>
</g>
<!-- Core&#45;&gt;Pool -->
<g id="edge4" class="edge">
<title>Core&#45;&gt;Pool</title>
<path fill="none" stroke="#5a7088" stroke-width="1.1" d="M191.25,-227.99C191.25,-205.51 191.25,-170 191.25,-170 191.25,-170 174.08,-170 174.08,-170"/>
<polygon fill="#5a7088" stroke="#5a7088" stroke-width="1.1" points="174.08,-167.2 166.08,-170 174.08,-172.8 174.08,-167.2"/>
</g>
<!-- Driver -->
<g id="node6" class="node">
<title>Driver</title>
<path fill="#f7fbff" stroke="#4d6a86" stroke-width="1.2" d="M586.5,-188C586.5,-188 412.5,-188 412.5,-188 406.5,-188 400.5,-182 400.5,-176 400.5,-176 400.5,-164 400.5,-164 400.5,-158 406.5,-152 412.5,-152 412.5,-152 586.5,-152 586.5,-152 592.5,-152 598.5,-158 598.5,-164 598.5,-164 598.5,-176 598.5,-176 598.5,-182 592.5,-188 586.5,-188"/>
<text text-anchor="middle" x="499.5" y="-173.2" font-family="Helvetica,sans-Serif" font-size="11.00">Driver and stream abstraction</text>
<text text-anchor="middle" x="499.5" y="-161.2" font-family="Helvetica,sans-Serif" font-size="11.00">driver + stream port + swdriver</text>
</g>
<!-- Core&#45;&gt;Driver -->
<g id="edge5" class="edge">
<title>Core&#45;&gt;Driver</title>
<path fill="none" stroke="#5a7088" stroke-width="1.1" d="M297.66,-246C373.93,-246 499.5,-246 499.5,-246 499.5,-246 499.5,-196.01 499.5,-196.01"/>
<polygon fill="#5a7088" stroke="#5a7088" stroke-width="1.1" points="502.3,-196.01 499.5,-188.01 496.7,-196.01 502.3,-196.01"/>
</g>
<!-- OSAL -->
<g id="node8" class="node">
<title>OSAL</title>
<path fill="#f7fbff" stroke="#4d6a86" stroke-width="1.2" d="M172,-112C172,-112 13,-112 13,-112 7,-112 1,-106 1,-100 1,-100 1,-88 1,-88 1,-82 7,-76 13,-76 13,-76 172,-76 172,-76 178,-76 184,-82 184,-88 184,-88 184,-100 184,-100 184,-106 178,-112 172,-112"/>
<text text-anchor="middle" x="92.5" y="-97.2" font-family="Helvetica,sans-Serif" font-size="11.00">OS abstraction layer</text>
<text text-anchor="middle" x="92.5" y="-85.2" font-family="Helvetica,sans-Serif" font-size="11.00">threads, events, timers, sync</text>
</g>
<!-- Pool&#45;&gt;OSAL -->
<g id="edge9" class="edge">
<title>Pool&#45;&gt;OSAL</title>
<path fill="none" stroke="#5a7088" stroke-width="1.1" d="M92.5,-151.99C92.5,-151.99 92.5,-120.15 92.5,-120.15"/>
<polygon fill="#5a7088" stroke="#5a7088" stroke-width="1.1" points="95.3,-120.15 92.5,-112.15 89.7,-120.15 95.3,-120.15"/>
</g>
<!-- Driver&#45;&gt;OSAL -->
<g id="edge8" class="edge">
<title>Driver&#45;&gt;OSAL</title>
<path fill="none" stroke="#5a7088" stroke-width="1.1" d="M404.25,-151.99C404.25,-129.51 404.25,-94 404.25,-94 404.25,-94 192.35,-94 192.35,-94"/>
<polygon fill="#5a7088" stroke="#5a7088" stroke-width="1.1" points="192.35,-91.2 184.35,-94 192.35,-96.8 192.35,-91.2"/>
</g>
<!-- Backend -->
<g id="node9" class="node">
<title>Backend</title>
<path fill="#f7fbff" stroke="#4d6a86" stroke-width="1.2" d="M550.5,-112C550.5,-112 448.5,-112 448.5,-112 442.5,-112 436.5,-106 436.5,-100 436.5,-100 436.5,-88 436.5,-88 436.5,-82 442.5,-76 448.5,-76 448.5,-76 550.5,-76 550.5,-76 556.5,-76 562.5,-82 562.5,-88 562.5,-88 562.5,-100 562.5,-100 562.5,-106 556.5,-112 550.5,-112"/>
<text text-anchor="middle" x="499.5" y="-97.2" font-family="Helvetica,sans-Serif" font-size="11.00">Platform backends</text>
<text text-anchor="middle" x="499.5" y="-85.2" font-family="Helvetica,sans-Serif" font-size="11.00">os/linux, os/chibios</text>
</g>
<!-- Driver&#45;&gt;Backend -->
<g id="edge10" class="edge">
<title>Driver&#45;&gt;Backend</title>
<path fill="none" stroke="#5a7088" stroke-width="1.1" d="M499.5,-151.99C499.5,-151.99 499.5,-120.15 499.5,-120.15"/>
<polygon fill="#5a7088" stroke="#5a7088" stroke-width="1.1" points="502.3,-120.15 499.5,-112.15 496.7,-120.15 502.3,-120.15"/>
</g>
<!-- Runner -->
<g id="node7" class="node">
<title>Runner</title>
<path fill="#f7fbff" stroke="#4d6a86" stroke-width="1.2" d="M99,-340C99,-340 12,-340 12,-340 6,-340 0,-334 0,-328 0,-328 0,-316 0,-316 0,-310 6,-304 12,-304 12,-304 99,-304 99,-304 105,-304 111,-310 111,-316 111,-316 111,-328 111,-328 111,-334 105,-340 99,-340"/>
<text text-anchor="middle" x="55.5" y="-325.2" font-family="Helvetica,sans-Serif" font-size="11.00">Runner</text>
<text text-anchor="middle" x="55.5" y="-313.2" font-family="Helvetica,sans-Serif" font-size="11.00">execution model</text>
</g>
<!-- Runner&#45;&gt;Core -->
<g id="edge6" class="edge">
<title>Runner&#45;&gt;Core</title>
<path fill="none" stroke="#5a7088" stroke-width="1.1" d="M65,-303.99C65,-281.51 65,-246 65,-246 65,-246 175.03,-246 175.03,-246"/>
<polygon fill="#5a7088" stroke="#5a7088" stroke-width="1.1" points="175.03,-248.8 183.03,-246 175.03,-243.2 175.03,-248.8"/>
</g>
<!-- Runner&#45;&gt;OSAL -->
<g id="edge7" class="edge">
<title>Runner&#45;&gt;OSAL</title>
<path fill="none" stroke="#5a7088" stroke-width="1.1" d="M10,-303.73C10,-303.73 10,-120.04 10,-120.04"/>
<polygon fill="#5a7088" stroke="#5a7088" stroke-width="1.1" points="12.8,-120.04 10,-112.04 7.2,-120.04 12.8,-120.04"/>
</g>
<!-- Transport -->
<g id="node10" class="node">
<title>Transport</title>
<path fill="#f7fbff" stroke="#4d6a86" stroke-width="1.2" d="M579,-36C579,-36 420,-36 420,-36 414,-36 408,-30 408,-24 408,-24 408,-12 408,-12 408,-6 414,0 420,0 420,0 579,0 579,0 585,0 591,-6 591,-12 591,-12 591,-24 591,-24 591,-30 585,-36 579,-36"/>
<text text-anchor="middle" x="499.5" y="-21.2" font-family="Helvetica,sans-Serif" font-size="11.00">Physical transport</text>
<text text-anchor="middle" x="499.5" y="-9.2" font-family="Helvetica,sans-Serif" font-size="11.00">UART, SPI, DMA, custom links</text>
</g>
<!-- Backend&#45;&gt;Transport -->
<g id="edge11" class="edge">
<title>Backend&#45;&gt;Transport</title>
<path fill="none" stroke="#5a7088" stroke-width="1.1" d="M499.5,-75.99C499.5,-75.99 499.5,-44.15 499.5,-44.15"/>
<polygon fill="#5a7088" stroke="#5a7088" stroke-width="1.1" points="502.3,-44.15 499.5,-36.15 496.7,-44.15 502.3,-44.15"/>
</g>
</g>
</svg>
