<?xml version="1.0" encoding="UTF-8" standalone="no"?>
<!DOCTYPE svg PUBLIC "-//W3C//DTD SVG 1.1//EN"
 "http://www.w3.org/Graphics/SVG/1.1/DTD/svg11.dtd">
<!-- Generated by graphviz version 2.43.0 (0)
 -->
<!-- Title: control_field_mod128 Pages: 1 -->
<svg width="316pt" height="118pt"
 viewBox="7.20 7.20 309.20 111.20" xmlns="http://www.w3.org/2000/svg" xmlns:xlink="http://www.w3.org/1999/xlink">
<g id="graph0" class="graph" transform="scale(1 1) rotate(0) translate(11.2 107.2)">
<title>control_field_mod128</title>
<!-- fields -->
<g id="node1" class="node">
<title>fields</title>
<polygon fill="#e8eef4" stroke="transparent" points="8,-70 8,-92 88,-92 88,-70 8,-70"/>
<polygon fill="none" stroke="#4d6a86" points="8,-70 8,-92 88,-92 88,-70 8,-70"/>
<text text-anchor="start" x="46" y="-78.8" font-family="Helvetica,sans-Serif" font-weight="bold" font-size="9.00"> </text>
<polygon fill="#e8eef4" stroke="transparent" points="88,-70 88,-92 192,-92 192,-70 88,-70"/>
<polygon fill="none" stroke="#4d6a86" points="88,-70 88,-92 192,-92 192,-70 88,-70"/>
<text text-anchor="start" x="101.5" y="-79.1" font-family="Helvetica,sans-Serif" font-weight="bold" font-size="8.00">Octet 1 (bits 7&#45;0)</text>
<polygon fill="#e8eef4" stroke="transparent" points="192,-70 192,-92 286,-92 286,-70 192,-70"/>
<polygon fill="none" stroke="#4d6a86" points="192,-70 192,-92 286,-92 286,-70 192,-70"/>
<text text-anchor="start" x="198" y="-79.1" font-family="Helvetica,sans-Serif" font-weight="bold" font-size="8.00">Octet 2 (bits 15&#45;8)</text>
<polygon fill="#f0f5fa" stroke="transparent" points="8,-48 8,-70 88,-70 88,-48 8,-48"/>
<polygon fill="none" stroke="#4d6a86" points="8,-48 8,-70 88,-70 88,-48 8,-48"/>
<text text-anchor="start" x="29.5" y="-56.8" font-family="Helvetica,sans-Serif" font-weight="bold" font-size="9.00">I&#45;frame</text>
<polygon fill="#f7fbff" stroke="transparent" points="88,-48 88,-70 173,-70 173,-48 88,-48"/>
<polygon fill="none" stroke="#4d6a86" points="88,-48 88,-70 173,-70 173,-48 88,-48"/>
<text text-anchor="start" x="120" y="-56.8" font-family="Helvetica,sans-Serif" font-size="9.00">N(S)</text>
<polygon fill="#e8eef4" stroke="transparent" points="173,-48 173,-70 192,-70 192,-48 173,-48"/>
<polygon fill="none" stroke="#4d6a86" points="173,-48 173,-70 192,-70 192,-48 173,-48"/>
<text text-anchor="start" x="179" y="-56.8" font-family="Helvetica,sans-Serif" font-weight="bold" font-size="9.00">0</text>
<polygon fill="#f7fbff" stroke="transparent" points="192,-48 192,-70 242,-70 242,-48 192,-48"/>
<polygon fill="none" stroke="#4d6a86" points="192,-48 192,-70 242,-70 242,-48 192,-48"/>
<text text-anchor="start" x="206.5" y="-56.8" font-family="Helvetica,sans-Serif" font-size="9.00">N(R)</text>
<polygon fill="#dce8f0" stroke="transparent" points="242,-48 242,-70 286,-70 286,-48 242,-48"/>
<polygon fill="none" stroke="#4d6a86" points="242,-48 242,-70 286,-70 286,-48 242,-48"/>
<text text-anchor="start" x="261" y="-56.8" font-family="Helvetica,sans-Serif" font-size="9.00">P</text>
<polygon fill="#f0f5fa" stroke="transparent" points="8,-26 8,-48 88,-48 88,-26 8,-26"/>
<polygon fill="none" stroke="#4d6a86" points="8,-26 8,-48 88,-48 88,-26 8,-26"/>
<text text-anchor="start" x="27.5" y="-34.8" font-family="Helvetica,sans-Serif" font-weight="bold" font-size="9.00">S&#45;frame</text>
<polygon fill="#f7fbff" stroke="transparent" points="88,-26 88,-48 134,-48 134,-26 88,-26"/>
<polygon fill="none" stroke="#4d6a86" points="88,-26 88,-48 134,-48 134,-26 88,-26"/>
<text text-anchor="start" x="98.5" y="-34.8" font-family="Helvetica,sans-Serif" font-size="9.00">0000</text>
<polygon fill="#f7fbff" stroke="transparent" points="134,-26 134,-48 154,-48 154,-26 134,-26"/>
<polygon fill="none" stroke="#4d6a86" points="134,-26 134,-48 154,-48 154,-26 134,-26"/>
<text text-anchor="start" x="140.5" y="-34.8" font-family="Helvetica,sans-Serif" font-size="9.00">S</text>
<polygon fill="#e8eef4" stroke="transparent" points="154,-26 154,-48 173,-48 173,-26 154,-26"/>
<polygon fill="none" stroke="#4d6a86" points="154,-26 154,-48 173,-48 173,-26 154,-26"/>
<text text-anchor="start" x="160" y="-34.8" font-family="Helvetica,sans-Serif" font-weight="bold" font-size="9.00">0</text>
<polygon fill="#e8eef4" stroke="transparent" points="173,-26 173,-48 192,-48 192,-26 173,-26"/>
<polygon fill="none" stroke="#4d6a86" points="173,-26 173,-48 192,-48 192,-26 173,-26"/>
<text text-anchor="start" x="179" y="-34.8" font-family="Helvetica,sans-Serif" font-weight="bold" font-size="9.00">1</text>
<polygon fill="#f7fbff" stroke="transparent" points="192,-26 192,-48 242,-48 242,-26 192,-26"/>
<polygon fill="none" stroke="#4d6a86" points="192,-26 192,-48 242,-48 242,-26 192,-26"/>
<text text-anchor="start" x="206.5" y="-34.8" font-family="Helvetica,sans-Serif" font-size="9.00">N(R)</text>
<polygon fill="#dce8f0" stroke="transparent" points="242,-26 242,-48 286,-48 286,-26 242,-26"/>
<polygon fill="none" stroke="#4d6a86" points="242,-26 242,-48 286,-48 286,-26 242,-26"/>
<text text-anchor="start" x="257" y="-34.8" font-family="Helvetica,sans-Serif" font-size="9.00">P/F</text>
<polygon fill="#f0f5fa" stroke="transparent" points="8,-4 8,-26 88,-26 88,-4 8,-4"/>
<polygon fill="none" stroke="#4d6a86" points="8,-4 8,-26 88,-26 88,-4 8,-4"/>
<text text-anchor="start" x="27" y="-12.8" font-family="Helvetica,sans-Serif" font-weight="bold" font-size="9.00">U&#45;frame</text>
<polygon fill="#f7fbff" stroke="transparent" points="88,-4 88,-26 108,-26 108,-4 88,-4"/>
<polygon fill="none" stroke="#4d6a86" points="88,-4 88,-26 108,-26 108,-4 88,-4"/>
<text text-anchor="start" x="94" y="-12.8" font-family="Helvetica,sans-Serif" font-size="9.00">M</text>
<polygon fill="#dce8f0" stroke="transparent" points="108,-4 108,-26 134,-26 134,-4 108,-4"/>
<polygon fill="none" stroke="#4d6a86" points="108,-4 108,-26 134,-26 134,-4 108,-4"/>
<text text-anchor="start" x="114" y="-12.8" font-family="Helvetica,sans-Serif" font-size="9.00">P/F</text>
<polygon fill="#f7fbff" stroke="transparent" points="134,-4 134,-26 154,-26 154,-4 134,-4"/>
<polygon fill="none" stroke="#4d6a86" points="134,-4 134,-26 154,-26 154,-4 134,-4"/>
<text text-anchor="start" x="140" y="-12.8" font-family="Helvetica,sans-Serif" font-size="9.00">M</text>
<polygon fill="#e8eef4" stroke="transparent" points="154,-4 154,-26 173,-26 173,-4 154,-4"/>
<polygon fill="none" stroke="#4d6a86" points="154,-4 154,-26 173,-26 173,-4 154,-4"/>
<text text-anchor="start" x="160" y="-12.8" font-family="Helvetica,sans-Serif" font-weight="bold" font-size="9.00">1</text>
<polygon fill="#e8eef4" stroke="transparent" points="173,-4 173,-26 192,-26 192,-4 173,-4"/>
<polygon fill="none" stroke="#4d6a86" points="173,-4 173,-26 192,-26 192,-4 173,-4"/>
<text text-anchor="start" x="179" y="-12.8" font-family="Helvetica,sans-Serif" font-weight="bold" font-size="9.00">1</text>
<polygon fill="#f7fbff" stroke="transparent" points="192,-4 192,-26 286,-26 286,-4 192,-4"/>
<polygon fill="none" stroke="#4d6a86" points="192,-4 192,-26 286,-26 286,-4 192,-4"/>
<text text-anchor="start" x="213" y="-12.8" font-family="Helvetica,sans-Serif" font-size="9.00">0000 0000</text>
</g>
</g>
</svg>
