<?xml version="1.0" encoding="UTF-8" standalone="no"?>
<!DOCTYPE svg PUBLIC "-//W3C//DTD SVG 1.1//EN"
 "http://www.w3.org/Graphics/SVG/1.1/DTD/svg11.dtd">
<!-- Generated by graphviz version 2.43.0 (0)
 -->
<!-- Title: control_field_mod8 Pages: 1 -->
<svg width="406pt" height="126pt"
 viewBox="7.20 7.20 399.20 119.20" xmlns="http://www.w3.org/2000/svg" xmlns:xlink="http://www.w3.org/1999/xlink">
<g id="graph0" class="graph" transform="scale(1 1) rotate(0) translate(11.2 115.2)">
<title>control_field_mod8</title>
<!-- fields -->
<g id="node1" class="node">
<title>fields</title>
<polygon fill="#e8eef4" stroke="transparent" points="8,-76 8,-100 88,-100 88,-76 8,-76"/>
<polygon fill="none" stroke="#4d6a86" points="8,-76 8,-100 88,-100 88,-76 8,-76"/>
<text text-anchor="start" x="46" y="-85.8" font-family="Helvetica,sans-Serif" font-weight="bold" font-size="9.00"> </text>
<polygon fill="#e8eef4" stroke="transparent" points="88,-76 88,-100 124,-100 124,-76 88,-76"/>
<polygon fill="none" stroke="#4d6a86" points="88,-76 88,-100 124,-100 124,-76 88,-76"/>
<text text-anchor="start" x="95" y="-86.1" font-family="Helvetica,sans-Serif" font-weight="bold" font-size="8.00">bit 7</text>
<polygon fill="#e8eef4" stroke="transparent" points="124,-76 124,-100 160,-100 160,-76 124,-76"/>
<polygon fill="none" stroke="#4d6a86" points="124,-76 124,-100 160,-100 160,-76 124,-76"/>
<text text-anchor="start" x="131" y="-86.1" font-family="Helvetica,sans-Serif" font-weight="bold" font-size="8.00">bit 6</text>
<polygon fill="#e8eef4" stroke="transparent" points="160,-76 160,-100 196,-100 196,-76 160,-76"/>
<polygon fill="none" stroke="#4d6a86" points="160,-76 160,-100 196,-100 196,-76 160,-76"/>
<text text-anchor="start" x="167" y="-86.1" font-family="Helvetica,sans-Serif" font-weight="bold" font-size="8.00">bit 5</text>
<polygon fill="#e8eef4" stroke="transparent" points="196,-76 196,-100 232,-100 232,-76 196,-76"/>
<polygon fill="none" stroke="#4d6a86" points="196,-76 196,-100 232,-100 232,-76 196,-76"/>
<text text-anchor="start" x="203" y="-86.1" font-family="Helvetica,sans-Serif" font-weight="bold" font-size="8.00">bit 4</text>
<polygon fill="#e8eef4" stroke="transparent" points="232,-76 232,-100 268,-100 268,-76 232,-76"/>
<polygon fill="none" stroke="#4d6a86" points="232,-76 232,-100 268,-100 268,-76 232,-76"/>
<text text-anchor="start" x="239" y="-86.1" font-family="Helvetica,sans-Serif" font-weight="bold" font-size="8.00">bit 3</text>
<polygon fill="#e8eef4" stroke="transparent" points="268,-76 268,-100 304,-100 304,-76 268,-76"/>
<polygon fill="none" stroke="#4d6a86" points="268,-76 268,-100 304,-100 304,-76 268,-76"/>
<text text-anchor="start" x="275" y="-86.1" font-family="Helvetica,sans-Serif" font-weight="bold" font-size="8.00">bit 2</text>
<polygon fill="#e8eef4" stroke="transparent" points="304,-76 304,-100 340,-100 340,-76 304,-76"/>
<polygon fill="none" stroke="#4d6a86" points="304,-76 304,-100 340,-100 340,-76 304,-76"/>
<text text-anchor="start" x="311" y="-86.1" font-family="Helvetica,sans-Serif" font-weight="bold" font-size="8.00">bit 1</text>
<polygon fill="#e8eef4" stroke="transparent" points="340,-76 340,-100 376,-100 376,-76 340,-76"/>
<polygon fill="none" stroke="#4d6a86" points="340,-76 340,-100 376,-100 376,-76 340,-76"/>
<text text-anchor="start" x="347" y="-86.1" font-family="Helvetica,sans-Serif" font-weight="bold" font-size="8.00">bit 0</text>
<polygon fill="#f0f5fa" stroke="transparent" points="8,-52 8,-76 88,-76 88,-52 8,-52"/>
<polygon fill="none" stroke="#4d6a86" points="8,-52 8,-76 88,-76 88,-52 8,-52"/>
<text text-anchor="start" x="29.5" y="-61.8" font-family="Helvetica,sans-Serif" font-weight="bold" font-size="9.00">I&#45;frame</text>
<polygon fill="#f7fbff" stroke="transparent" points="88,-52 88,-76 196,-76 196,-52 88,-52"/>
<polygon fill="none" stroke="#4d6a86" points="88,-52 88,-76 196,-76 196,-52 88,-52"/>
<text text-anchor="start" x="131.5" y="-61.8" font-family="Helvetica,sans-Serif" font-size="9.00">N(R)</text>
<polygon fill="#dce8f0" stroke="transparent" points="196,-52 196,-76 232,-76 232,-52 196,-52"/>
<polygon fill="none" stroke="#4d6a86" points="196,-52 196,-76 232,-76 232,-52 196,-52"/>
<text text-anchor="start" x="211" y="-61.8" font-family="Helvetica,sans-Serif" font-size="9.00">P</text>
<polygon fill="#f7fbff" stroke="transparent" points="232,-52 232,-76 340,-76 340,-52 232,-52"/>
<polygon fill="none" stroke="#4d6a86" points="232,-52 232,-76 340,-76 340,-52 232,-52"/>
<text text-anchor="start" x="275.5" y="-61.8" font-family="Helvetica,sans-Serif" font-size="9.00">N(S)</text>
<polygon fill="#e8eef4" stroke="transparent" points="340,-52 340,-76 376,-76 376,-52 340,-52"/>
<polygon fill="none" stroke="#4d6a86" points="340,-52 340,-76 376,-76 376,-52 340,-52"/>
<text text-anchor="start" x="354.5" y="-61.8" font-family="Helvetica,sans-Serif" font-weight="bold" font-size="9.00">0</text>
<polygon fill="#f0f5fa" stroke="transparent" points="8,-28 8,-52 88,-52 88,-28 8,-28"/>
<polygon fill="none" stroke="#4d6a86" points="8,-28 8,-52 88,-52 88,-28 8,-28"/>
<text text-anchor="start" x="27.5" y="-37.8" font-family="Helvetica,sans-Serif" font-weight="bold" font-size="9.00">S&#45;frame</text>
<polygon fill="#f7fbff" stroke="transparent" points="88,-28 88,-52 196,-52 196,-28 88,-28"/>
<polygon fill="none" stroke="#4d6a86" points="88,-28 88,-52 196,-52 196,-28 88,-28"/>
<text text-anchor="start" x="131.5" y="-37.8" font-family="Helvetica,sans-Serif" font-size="9.00">N(R)</text>
<polygon fill="#dce8f0" stroke="transparent" points="196,-28 196,-52 232,-52 232,-28 196,-28"/>
<polygon fill="none" stroke="#4d6a86" points="196,-28 196,-52 232,-52 232,-28 196,-28"/>
<text text-anchor="start" x="207" y="-37.8" font-family="Helvetica,sans-Serif" font-size="9.00">P/F</text>
<polygon fill="#f7fbff" stroke="transparent" points="232,-28 232,-52 304,-52 304,-28 232,-28"/>
<polygon fill="none" stroke="#4d6a86" points="232,-28 232,-52 304,-52 304,-28 232,-28"/>
<text text-anchor="start" x="264.5" y="-37.8" font-family="Helvetica,sans-Serif" font-size="9.00">S</text>
<polygon fill="#e8eef4" stroke="transparent" points="304,-28 304,-52 340,-52 340,-28 304,-28"/>
<polygon fill="none" stroke="#4d6a86" points="304,-28 304,-52 340,-52 340,-28 304,-28"/>
<text text-anchor="start" x="318.5" y="-37.8" font-family="Helvetica,sans-Serif" font-weight="bold" font-size="9.00">0</text>
<polygon fill="#e8eef4" stroke="transparent" points="340,-28 340,-52 376,-52 376,-28 340,-28"/>
<polygon fill="none" stroke="#4d6a86" points="340,-28 340,-52 376,-52 376,-28 340,-28"/>
<text text-anchor="start" x="354.5" y="-37.8" font-family="Helvetica,sans-Serif" font-weight="bold" font-size="9.00">1</text>
<polygon fill="#f0f5fa" stroke="transparent" points="8,-4 8,-28 88,-28 88,-4 8,-4"/>
<polygon fill="none" stroke="#4d6a86" points="8,-4 8,-28 88,-28 88,-4 8,-4"/>
<text text-anchor="start" x="27" y="-13.8" font-family="Helvetica,sans-Serif" font-weight="bold" font-size="9.00">U&#45;frame</text>
<polygon fill="#f7fbff" stroke="transparent" points="88,-4 88,-28 196,-28 196,-4 88,-4"/>
<polygon fill="none" stroke="#4d6a86" points="88,-4 88,-28 196,-28 196,-4 88,-4"/>
<text text-anchor="start" x="138" y="-13.8" font-family="Helvetica,sans-Serif" font-size="9.00">M</text>
<polygon fill="#dce8f0" stroke="transparent" points="196,-4 196,-28 232,-28 232,-4 196,-4"/>
<polygon fill="none" stroke="#4d6a86" points="196,-4 196,-28 232,-28 232,-4 196,-4"/>
<text text-anchor="start" x="207" y="-13.8" font-family="Helvetica,sans-Serif" font-size="9.00">P/F</text>
<polygon fill="#f7fbff" stroke="transparent" points="232,-4 232,-28 304,-28 304,-4 232,-4"/>
<polygon fill="none" stroke="#4d6a86" points="232,-4 232,-28 304,-28 304,-4 232,-4"/>
<text text-anchor="start" x="264" y="-13.8" font-family="Helvetica,sans-Serif" font-size="9.00">M</text>
<polygon fill="#e8eef4" stroke="transparent" points="304,-4 304,-28 340,-28 340,-4 304,-4"/>
<polygon fill="none" stroke="#4d6a86" points="304,-4 304,-28 340,-28 340,-4 304,-4"/>
<text text-anchor="start" x="318.5" y="-13.8" font-family="Helvetica,sans-Serif" font-weight="bold" font-size="9.00">1</text>
<polygon fill="#e8eef4" stroke="transparent" points="340,-4 340,-28 376,-28 376,-4 340,-4"/>
<polygon fill="none" stroke="#4d6a86" points="340,-4 340,-28 376,-28 376,-4 340,-4"/>
<text text-anchor="start" x="354.5" y="-13.8" font-family="Helvetica,sans-Serif" font-weight="bold" font-size="9.00">1</text>
</g>
</g>
</svg>
