<?xml version="1.0" encoding="UTF-8" standalone="no"?>
<!DOCTYPE svg PUBLIC "-//W3C//DTD SVG 1.1//EN"
 "http://www.w3.org/Graphics/SVG/1.1/DTD/svg11.dtd">
<!-- Generated by graphviz version 2.43.0 (0)
 -->
<!-- Title: frame_states Pages: 1 -->
<svg width="597pt" height="206pt"
 viewBox="0.00 0.00 597.00 206.30" xmlns="http://www.w3.org/2000/svg" xmlns:xlink="http://www.w3.org/1999/xlink">
<g id="graph0" class="graph" transform="scale(1 1) rotate(0) translate(4 202.3)">
<title>frame_states</title>
<!-- free -->
<g id="node1" class="node">
<title>free</title>
<ellipse fill="none" stroke="black" cx="36.5" cy="-93.8" rx="32.5" ry="32.5"/>
<ellipse fill="none" stroke="black" cx="36.5" cy="-93.8" rx="36.5" ry="36.5"/>
<text text-anchor="middle" x="36.5" y="-96.4" font-family="Helvetica,sans-Serif" font-size="8.00">Free</text>
<text text-anchor="middle" x="36.5" y="-87.4" font-family="Helvetica,sans-Serif" font-size="8.00">(pool)</text>
</g>
<!-- owned -->
<g id="node2" class="node">
<title>owned</title>
<ellipse fill="none" stroke="black" cx="223.5" cy="-160.8" rx="32.5" ry="32.5"/>
<text text-anchor="middle" x="223.5" y="-163.4" font-family="Helvetica,sans-Serif" font-size="8.00">Owned</text>
<text text-anchor="middle" x="223.5" y="-154.4" font-family="Helvetica,sans-Serif" font-size="8.00">rc = 1</text>
</g>
<!-- free&#45;&gt;owned -->
<g id="edge1" class="edge">
<title>free&#45;&gt;owned</title>
<path fill="none" stroke="black" d="M71,-105.93C102.56,-117.36 149.84,-134.48 183.18,-146.56"/>
<polygon fill="black" stroke="black" points="182.02,-149.86 192.61,-149.97 184.4,-143.28 182.02,-149.86"/>
<text text-anchor="middle" x="132" y="-145.4" font-family="Helvetica,sans-Serif" font-size="8.00">hdlcTakeFrame()</text>
</g>
<!-- queued -->
<g id="node3" class="node">
<title>queued</title>
<ellipse fill="none" stroke="black" cx="406.5" cy="-165.8" rx="32.5" ry="32.5"/>
<text text-anchor="middle" x="406.5" y="-163.9" font-family="Helvetica,sans-Serif" font-size="8.00">Queued</text>
</g>
<!-- owned&#45;&gt;queued -->
<g id="edge2" class="edge">
<title>owned&#45;&gt;queued</title>
<path fill="none" stroke="black" d="M256.03,-161.67C285.82,-162.49 330.72,-163.73 363.53,-164.64"/>
<polygon fill="black" stroke="black" points="363.63,-168.14 373.73,-164.92 363.83,-161.14 363.63,-168.14"/>
<text text-anchor="middle" x="315" y="-166.4" font-family="Helvetica,sans-Serif" font-size="8.00">enqueue</text>
</g>
<!-- active -->
<g id="node4" class="node">
<title>active</title>
<ellipse fill="none" stroke="black" cx="556.5" cy="-109.8" rx="32.5" ry="32.5"/>
<text text-anchor="middle" x="556.5" y="-107.9" font-family="Helvetica,sans-Serif" font-size="8.00">Active</text>
</g>
<!-- queued&#45;&gt;active -->
<g id="edge3" class="edge">
<title>queued&#45;&gt;active</title>
<path fill="none" stroke="black" d="M439.15,-162.86C459,-160.18 484.76,-155.15 506,-145.8 511.81,-143.24 517.6,-139.92 523.07,-136.33"/>
<polygon fill="black" stroke="black" points="525.16,-139.13 531.35,-130.53 521.15,-133.4 525.16,-139.13"/>
<text text-anchor="middle" x="481.5" y="-161.4" font-family="Helvetica,sans-Serif" font-size="8.00">dequeue</text>
</g>
<!-- shared -->
<g id="node5" class="node">
<title>shared</title>
<ellipse fill="none" stroke="black" cx="223.5" cy="-32.8" rx="32.5" ry="32.5"/>
<text text-anchor="middle" x="223.5" y="-35.4" font-family="Helvetica,sans-Serif" font-size="8.00">Shared</text>
<text text-anchor="middle" x="223.5" y="-26.4" font-family="Helvetica,sans-Serif" font-size="8.00">rc &gt; 1</text>
</g>
<!-- queued&#45;&gt;shared -->
<g id="edge5" class="edge">
<title>queued&#45;&gt;shared</title>
<path fill="none" stroke="black" d="M405.47,-133.24C403.47,-96.88 394.01,-39.51 356,-11.8 328.81,8.02 290.03,-1.48 261.63,-13.37"/>
<polygon fill="black" stroke="black" points="260.15,-10.2 252.43,-17.46 262.99,-16.6 260.15,-10.2"/>
<text text-anchor="middle" x="315" y="-14.4" font-family="Helvetica,sans-Serif" font-size="8.00">hdlcAddRef()</text>
</g>
<!-- active&#45;&gt;free -->
<g id="edge4" class="edge">
<title>active&#45;&gt;free</title>
<path fill="none" stroke="black" d="M523.81,-108.47C517.89,-108.23 511.76,-108 506,-107.8 351,-102.35 167.11,-97.25 83.26,-95.01"/>
<polygon fill="black" stroke="black" points="83.15,-91.5 73.06,-94.73 82.96,-98.5 83.15,-91.5"/>
<text text-anchor="middle" x="315" y="-113.4" font-family="Helvetica,sans-Serif" font-size="8.00">hdlcReleaseFrame()</text>
<text text-anchor="middle" x="315" y="-104.4" font-family="Helvetica,sans-Serif" font-size="8.00">rc → 0</text>
</g>
<!-- active&#45;&gt;queued -->
<g id="edge8" class="edge">
<title>active&#45;&gt;queued</title>
<path fill="none" stroke="black" stroke-dasharray="5,2" d="M523.65,-109.87C503.72,-110.97 477.95,-114.38 457,-123.8 450.22,-126.85 443.64,-131.12 437.61,-135.77"/>
<polygon fill="black" stroke="black" points="435.23,-133.2 429.77,-142.28 439.7,-138.59 435.23,-133.2"/>
<text text-anchor="middle" x="481.5" y="-135.4" font-family="Helvetica,sans-Serif" font-size="8.00">re&#45;queue</text>
<text text-anchor="middle" x="481.5" y="-126.4" font-family="Helvetica,sans-Serif" font-size="8.00">(retransmit)</text>
</g>
<!-- shared&#45;&gt;free -->
<g id="edge7" class="edge">
<title>shared&#45;&gt;free</title>
<path fill="none" stroke="black" d="M191.11,-36.81C163.93,-40.97 123.92,-48.72 91,-61.8 86.1,-63.74 81.12,-66.11 76.28,-68.67"/>
<polygon fill="black" stroke="black" points="74.2,-65.82 67.18,-73.75 77.62,-71.93 74.2,-65.82"/>
<text text-anchor="middle" x="132" y="-73.4" font-family="Helvetica,sans-Serif" font-size="8.00">hdlcReleaseFrame()</text>
<text text-anchor="middle" x="132" y="-64.4" font-family="Helvetica,sans-Serif" font-size="8.00">rc → 0</text>
</g>
<!-- shared&#45;&gt;queued -->
<g id="edge6" class="edge">
<title>shared&#45;&gt;queued</title>
<path fill="none" stroke="black" d="M255.94,-29.83C284.85,-28.8 327.43,-31.78 356,-53.8 378.13,-70.85 390.58,-99.9 397.46,-124.14"/>
<polygon fill="black" stroke="black" points="394.08,-125.06 400,-133.85 400.85,-123.29 394.08,-125.06"/>
<text text-anchor="middle" x="315" y="-65.4" font-family="Helvetica,sans-Serif" font-size="8.00">hdlcReleaseFrame()</text>
<text text-anchor="middle" x="315" y="-56.4" font-family="Helvetica,sans-Serif" font-size="8.00">rc &gt; 0</text>
</g>
</g>
</svg>
