<?xml version="1.0" encoding="UTF-8" standalone="no"?>
<!DOCTYPE svg PUBLIC "-//W3C//DTD SVG 1.1//EN"
 "http://www.w3.org/Graphics/SVG/1.1/DTD/svg11.dtd">
<!-- Generated by graphviz version 2.43.0 (0)
 -->
<!-- Title: frame_format_classic Pages: 1 -->
<svg width="458pt" height="142pt"
 viewBox="7.20 7.20 451.20 135.20" xmlns="http://www.w3.org/2000/svg" xmlns:xlink="http://www.w3.org/1999/xlink">
<g id="graph0" class="graph" transform="scale(1 1) rotate(0) translate(11.2 131.2)">
<title>frame_format_classic</title>
<!-- frame -->
<g id="node1" class="node">
<title>frame</title>
<polygon fill="#e8eef4" stroke="transparent" points="8,-76 8,-116 58,-116 58,-76 8,-76"/>
<polygon fill="none" stroke="#4d6a86" points="8,-76 8,-116 58,-116 58,-76 8,-76"/>
<text text-anchor="start" x="22" y="-99" font-family="Helvetica,sans-Serif" font-size="10.00">Flag</text>
<text text-anchor="start" x="20.5" y="-88" font-family="Helvetica,sans-Serif" font-size="10.00">0x7E</text>
<polygon fill="#f7fbff" stroke="transparent" points="58,-76 58,-116 128,-116 128,-76 58,-76"/>
<polygon fill="none" stroke="#4d6a86" points="58,-76 58,-116 128,-116 128,-76 58,-76"/>
<text text-anchor="start" x="73" y="-99" font-family="Helvetica,sans-Serif" font-size="10.00">Address</text>
<text text-anchor="start" x="79" y="-88" font-family="Helvetica,sans-Serif" font-size="10.00">8 bits</text>
<polygon fill="#f7fbff" stroke="transparent" points="128,-76 128,-116 198,-116 198,-76 128,-76"/>
<polygon fill="none" stroke="#4d6a86" points="128,-76 128,-116 198,-116 198,-76 128,-76"/>
<text text-anchor="start" x="145" y="-99" font-family="Helvetica,sans-Serif" font-size="10.00">Control</text>
<text text-anchor="start" x="144.5" y="-88" font-family="Helvetica,sans-Serif" font-size="10.00">8/16 bit</text>
<polygon fill="#f7fbff" stroke="transparent" points="198,-76 198,-116 318,-116 318,-76 198,-76"/>
<polygon fill="none" stroke="#4d6a86" points="198,-76 198,-116 318,-116 318,-76 198,-76"/>
<text text-anchor="start" x="246" y="-99" font-family="Helvetica,sans-Serif" font-size="10.00">Data</text>
<text text-anchor="start" x="238" y="-88" font-family="Helvetica,sans-Serif" font-size="10.00">Variable</text>
<polygon fill="#f7fbff" stroke="transparent" points="318,-76 318,-116 378,-116 378,-76 318,-76"/>
<polygon fill="none" stroke="#4d6a86" points="318,-76 318,-116 378,-116 378,-76 318,-76"/>
<text text-anchor="start" x="338.5" y="-99" font-family="Helvetica,sans-Serif" font-size="10.00">FCS</text>
<text text-anchor="start" x="334" y="-88" font-family="Helvetica,sans-Serif" font-size="10.00">16 bit</text>
<polygon fill="#e8eef4" stroke="transparent" points="378,-76 378,-116 428,-116 428,-76 378,-76"/>
<polygon fill="none" stroke="#4d6a86" points="378,-76 378,-116 428,-116 428,-76 378,-76"/>
<text text-anchor="start" x="392" y="-99" font-family="Helvetica,sans-Serif" font-size="10.00">Flag</text>
<text text-anchor="start" x="390.5" y="-88" font-family="Helvetica,sans-Serif" font-size="10.00">0x7E</text>
</g>
<!-- note -->
<g id="node2" class="node">
<title>note</title>
<text text-anchor="start" x="119" y="-15.3" font-family="Times,serif" font-size="14.00"> &#160;&#160;&#160;</text>
<text text-anchor="start" x="138" y="-15.3" font-family="Helvetica,sans-Serif" font-size="9.00" fill="#5a7088">Byte stuffing applied to Address..FCS</text>
<text text-anchor="start" x="307" y="-15.3" font-family="Times,serif" font-size="14.00"> &#160;</text>
</g>
<!-- frame&#45;&gt;note -->
</g>
</svg>
