<?xml version="1.0" encoding="UTF-8" standalone="no"?>
<!DOCTYPE svg PUBLIC "-//W3C//DTD SVG 1.1//EN"
 "http://www.w3.org/Graphics/SVG/1.1/DTD/svg11.dtd">
<!-- Generated by graphviz version 2.43.0 (0)
 -->
<!-- Title: frame_format_fff Pages: 1 -->
<svg width="513pt" height="142pt"
 viewBox="7.20 7.20 506.20 135.20" xmlns="http://www.w3.org/2000/svg" xmlns:xlink="http://www.w3.org/1999/xlink">
<g id="graph0" class="graph" transform="scale(1 1) rotate(0) translate(11.2 131.2)">
<title>frame_format_fff</title>
<!-- frame -->
<g id="node1" class="node">
<title>frame</title>
<polygon fill="#e8eef4" stroke="transparent" points="8.5,-76 8.5,-116 58.5,-116 58.5,-76 8.5,-76"/>
<polygon fill="none" stroke="#4d6a86" points="8.5,-76 8.5,-116 58.5,-116 58.5,-76 8.5,-76"/>
<text text-anchor="start" x="22.5" y="-99" font-family="Helvetica,sans-Serif" font-size="10.00">Flag</text>
<text text-anchor="start" x="21" y="-88" font-family="Helvetica,sans-Serif" font-size="10.00">0x7E</text>
<polygon fill="#dce8f0" stroke="transparent" points="58.5,-76 58.5,-116 113.5,-116 113.5,-76 58.5,-76"/>
<polygon fill="none" stroke="#4d6a86" points="58.5,-76 58.5,-116 113.5,-116 113.5,-76 58.5,-76"/>
<text text-anchor="start" x="76.5" y="-99" font-family="Helvetica,sans-Serif" font-size="10.00">FFF</text>
<text text-anchor="start" x="73.5" y="-88" font-family="Helvetica,sans-Serif" font-size="10.00">1/2 B</text>
<polygon fill="#f7fbff" stroke="transparent" points="113.5,-76 113.5,-116 183.5,-116 183.5,-76 113.5,-76"/>
<polygon fill="none" stroke="#4d6a86" points="113.5,-76 113.5,-116 183.5,-116 183.5,-76 113.5,-76"/>
<text text-anchor="start" x="128.5" y="-99" font-family="Helvetica,sans-Serif" font-size="10.00">Address</text>
<text text-anchor="start" x="134.5" y="-88" font-family="Helvetica,sans-Serif" font-size="10.00">8 bits</text>
<polygon fill="#f7fbff" stroke="transparent" points="183.5,-76 183.5,-116 253.5,-116 253.5,-76 183.5,-76"/>
<polygon fill="none" stroke="#4d6a86" points="183.5,-76 183.5,-116 253.5,-116 253.5,-76 183.5,-76"/>
<text text-anchor="start" x="200.5" y="-99" font-family="Helvetica,sans-Serif" font-size="10.00">Control</text>
<text text-anchor="start" x="200" y="-88" font-family="Helvetica,sans-Serif" font-size="10.00">8/16 bit</text>
<polygon fill="#f7fbff" stroke="transparent" points="253.5,-76 253.5,-116 373.5,-116 373.5,-76 253.5,-76"/>
<polygon fill="none" stroke="#4d6a86" points="253.5,-76 253.5,-116 373.5,-116 373.5,-76 253.5,-76"/>
<text text-anchor="start" x="301.5" y="-99" font-family="Helvetica,sans-Serif" font-size="10.00">Data</text>
<text text-anchor="start" x="293.5" y="-88" font-family="Helvetica,sans-Serif" font-size="10.00">Variable</text>
<polygon fill="#f7fbff" stroke="transparent" points="373.5,-76 373.5,-116 433.5,-116 433.5,-76 373.5,-76"/>
<polygon fill="none" stroke="#4d6a86" points="373.5,-76 373.5,-116 433.5,-116 433.5,-76 373.5,-76"/>
<text text-anchor="start" x="394" y="-99" font-family="Helvetica,sans-Serif" font-size="10.00">FCS</text>
<text text-anchor="start" x="389.5" y="-88" font-family="Helvetica,sans-Serif" font-size="10.00">16 bit</text>
<polygon fill="#e8eef4" stroke="transparent" points="433.5,-76 433.5,-116 483.5,-116 483.5,-76 433.5,-76"/>
<polygon fill="none" stroke="#4d6a86" points="433.5,-76 433.5,-116 483.5,-116 483.5,-76 433.5,-76"/>
<text text-anchor="start" x="447.5" y="-99" font-family="Helvetica,sans-Serif" font-size="10.00">Flag</text>
<text text-anchor="start" x="446" y="-88" font-family="Helvetica,sans-Serif" font-size="10.00">0x7E</text>
</g>
<!-- note -->
<g id="node2" class="node">
<title>note</title>
<text text-anchor="start" x="138" y="-15.3" font-family="Times,serif" font-size="14.00"> &#160;&#160;&#160;</text>
<text text-anchor="start" x="157" y="-15.3" font-family="Helvetica,sans-Serif" font-size="9.00" fill="#5a7088">FFF declares total length of Address..FCS</text>
<text text-anchor="start" x="343" y="-15.3" font-family="Times,serif" font-size="14.00"> &#160;</text>
</g>
<!-- frame&#45;&gt;note -->
</g>
</svg>
