<?xml version="1.0" encoding="UTF-8" standalone="no"?><svg xmlns="http://www.w3.org/2000/svg" xmlns:xlink="http://www.w3.org/1999/xlink" contentScriptType="application/ecmascript" contentStyleType="text/css" height="493px" preserveAspectRatio="none" style="width:744px;height:493px;" version="1.1" viewBox="0 0 744 493" width="744px" zoomAndPan="magnify"><defs/><g><line style="stroke: #5A7088; stroke-width: 1.0; stroke-dasharray: 5.0,5.0;" x1="48" x2="48" y1="82.2969" y2="481.0234"/><line style="stroke: #5A7088; stroke-width: 1.0; stroke-dasharray: 5.0,5.0;" x1="270.5" x2="270.5" y1="82.2969" y2="481.0234"/><line style="stroke: #5A7088; stroke-width: 1.0; stroke-dasharray: 5.0,5.0;" x1="362.5" x2="362.5" y1="82.2969" y2="481.0234"/><line style="stroke: #5A7088; stroke-width: 1.0; stroke-dasharray: 5.0,5.0;" x1="514" x2="514" y1="82.2969" y2="481.0234"/><line style="stroke: #5A7088; stroke-width: 1.0; stroke-dasharray: 5.0,5.0;" x1="680.5" x2="680.5" y1="82.2969" y2="481.0234"/><text fill="#000000" font-family="sans-serif" font-size="14" lengthAdjust="spacingAndGlyphs" textLength="75" x="8" y="78.9951">Application</text><ellipse cx="48.5" cy="13" fill="#FEFECE" rx="8" ry="8" style="stroke: #A80036; stroke-width: 2.0;"/><path d="M48.5,21 L48.5,48 M35.5,29 L61.5,29 M48.5,48 L35.5,63 M48.5,48 L61.5,63 " fill="none" style="stroke: #A80036; stroke-width: 2.0;"/><rect fill="#F7FBFF" height="30.2969" style="stroke: #4D6A86; stroke-width: 1.5;" width="100" x="220.5" y="51"/><text fill="#1F2F3D" font-family="sans-serif" font-size="14" lengthAdjust="spacingAndGlyphs" textLength="86" x="227.5" y="70.9951">Station/Core</text><rect fill="#F7FBFF" height="30.2969" style="stroke: #4D6A86; stroke-width: 1.5;" width="65" x="330.5" y="51"/><text fill="#1F2F3D" font-family="sans-serif" font-size="14" lengthAdjust="spacingAndGlyphs" textLength="51" x="337.5" y="70.9951">Runner</text><rect fill="#F7FBFF" height="30.2969" style="stroke: #4D6A86; stroke-width: 1.5;" width="108" x="460" y="51"/><text fill="#1F2F3D" font-family="sans-serif" font-size="14" lengthAdjust="spacingAndGlyphs" textLength="94" x="467" y="70.9951">Driver/Stream</text><rect fill="#F7FBFF" height="30.2969" style="stroke: #4D6A86; stroke-width: 1.5;" width="105" x="628.5" y="51"/><text fill="#1F2F3D" font-family="sans-serif" font-size="14" lengthAdjust="spacingAndGlyphs" textLength="91" x="635.5" y="70.9951">Remote peer</text><polygon fill="#5A7088" points="258.5,109.4297,268.5,113.4297,258.5,117.4297,262.5,113.4297" style="stroke: #5A7088; stroke-width: 1.0;"/><line style="stroke: #5A7088; stroke-width: 1.0;" x1="48.5" x2="264.5" y1="113.4297" y2="113.4297"/><text fill="#000000" font-family="sans-serif" font-size="13" lengthAdjust="spacingAndGlyphs" textLength="126" x="55.5" y="108.3638">ioHdlcStationInit(...)</text><polygon fill="#5A7088" points="258.5,138.5625,268.5,142.5625,258.5,146.5625,262.5,142.5625" style="stroke: #5A7088; stroke-width: 1.0;"/><line style="stroke: #5A7088; stroke-width: 1.0;" x1="48.5" x2="264.5" y1="142.5625" y2="142.5625"/><text fill="#000000" font-family="sans-serif" font-size="13" lengthAdjust="spacingAndGlyphs" textLength="115" x="55.5" y="137.4966">ioHdlcAddPeer(...)</text><polygon fill="#5A7088" points="351,167.6953,361,171.6953,351,175.6953,355,171.6953" style="stroke: #5A7088; stroke-width: 1.0;"/><line style="stroke: #5A7088; stroke-width: 1.0;" x1="48.5" x2="357" y1="171.6953" y2="171.6953"/><text fill="#000000" font-family="sans-serif" font-size="13" lengthAdjust="spacingAndGlyphs" textLength="134" x="55.5" y="166.6294">start runner/backend</text><polygon fill="#5A7088" points="502,196.8281,512,200.8281,502,204.8281,506,200.8281" style="stroke: #5A7088; stroke-width: 1.0;"/><line style="stroke: #5A7088; stroke-width: 1.0;" x1="363" x2="508" y1="200.8281" y2="200.8281"/><text fill="#000000" font-family="sans-serif" font-size="13" lengthAdjust="spacingAndGlyphs" textLength="127" x="370" y="195.7622">arm RX/TX callbacks</text><polygon fill="#5A7088" points="258.5,225.9609,268.5,229.9609,258.5,233.9609,262.5,229.9609" style="stroke: #5A7088; stroke-width: 1.0;"/><line style="stroke: #5A7088; stroke-width: 1.0;" x1="48.5" x2="264.5" y1="229.9609" y2="229.9609"/><text fill="#000000" font-family="sans-serif" font-size="13" lengthAdjust="spacingAndGlyphs" textLength="150" x="55.5" y="224.895">ioHdlcStationLinkUp(...)</text><polygon fill="#5A7088" points="502,255.0938,512,259.0938,502,263.0938,506,259.0938" style="stroke: #5A7088; stroke-width: 1.0;"/><line style="stroke: #5A7088; stroke-width: 1.0;" x1="270.5" x2="508" y1="259.0938" y2="259.0938"/><text fill="#000000" font-family="sans-serif" font-size="13" lengthAdjust="spacingAndGlyphs" textLength="159" x="277.5" y="254.0278">submit link-setup frames</text><polygon fill="#5A7088" points="669,284.2266,679,288.2266,669,292.2266,673,288.2266" style="stroke: #5A7088; stroke-width: 1.0;"/><line style="stroke: #5A7088; stroke-width: 1.0;" x1="514" x2="675" y1="288.2266" y2="288.2266"/><text fill="#000000" font-family="sans-serif" font-size="13" lengthAdjust="spacingAndGlyphs" textLength="143" x="521" y="283.1606">transmit HDLC frames</text><polygon fill="#5A7088" points="525,313.3594,515,317.3594,525,321.3594,521,317.3594" style="stroke: #5A7088; stroke-width: 1.0;"/><line style="stroke: #5A7088; stroke-width: 1.0; stroke-dasharray: 2.0,2.0;" x1="519" x2="680" y1="317.3594" y2="317.3594"/><text fill="#000000" font-family="sans-serif" font-size="13" lengthAdjust="spacingAndGlyphs" textLength="112" x="531" y="312.2935">UA / RR / I-frames</text><polygon fill="#5A7088" points="281.5,342.4922,271.5,346.4922,281.5,350.4922,277.5,346.4922" style="stroke: #5A7088; stroke-width: 1.0;"/><line style="stroke: #5A7088; stroke-width: 1.0; stroke-dasharray: 2.0,2.0;" x1="275.5" x2="513" y1="346.4922" y2="346.4922"/><text fill="#000000" font-family="sans-serif" font-size="13" lengthAdjust="spacingAndGlyphs" textLength="153" x="287.5" y="341.4263">RX completion callbacks</text><polygon fill="#5A7088" points="258.5,371.625,268.5,375.625,258.5,379.625,262.5,375.625" style="stroke: #5A7088; stroke-width: 1.0;"/><line style="stroke: #5A7088; stroke-width: 1.0;" x1="48.5" x2="264.5" y1="375.625" y2="375.625"/><text fill="#000000" font-family="sans-serif" font-size="13" lengthAdjust="spacingAndGlyphs" textLength="198" x="55.5" y="370.5591">ioHdlcWrite(...) / ioHdlcRead(...)</text><polygon fill="#5A7088" points="502,400.7578,512,404.7578,502,408.7578,506,404.7578" style="stroke: #5A7088; stroke-width: 1.0;"/><line style="stroke: #5A7088; stroke-width: 1.0;" x1="270.5" x2="508" y1="404.7578" y2="404.7578"/><text fill="#000000" font-family="sans-serif" font-size="13" lengthAdjust="spacingAndGlyphs" textLength="174" x="277.5" y="399.6919">data and supervisory traffic</text><polygon fill="#5A7088" points="258.5,429.8906,268.5,433.8906,258.5,437.8906,262.5,433.8906" style="stroke: #5A7088; stroke-width: 1.0;"/><line style="stroke: #5A7088; stroke-width: 1.0;" x1="48.5" x2="264.5" y1="433.8906" y2="433.8906"/><text fill="#000000" font-family="sans-serif" font-size="13" lengthAdjust="spacingAndGlyphs" textLength="167" x="55.5" y="428.8247">ioHdlcStationLinkDown(...)</text><polygon fill="#5A7088" points="351,459.0234,361,463.0234,351,467.0234,355,463.0234" style="stroke: #5A7088; stroke-width: 1.0;"/><line style="stroke: #5A7088; stroke-width: 1.0;" x1="48.5" x2="357" y1="463.0234" y2="463.0234"/><text fill="#000000" font-family="sans-serif" font-size="13" lengthAdjust="spacingAndGlyphs" textLength="132" x="55.5" y="457.9575">stop runner/backend</text><!--MD5=[6eb6215d50307ea05b2d6d9d3b207c2b]
@startuml
hide footbox

skinparam backgroundColor transparent
skinparam shadowing false
skinparam ArrowColor #5a7088
skinparam SequenceLifeLineBorderColor #5a7088
skinparam SequenceLifeLineBackgroundColor #f7fbff
skinparam ParticipantBorderColor #4d6a86
skinparam ParticipantBackgroundColor #f7fbff
skinparam ParticipantFontColor #1f2f3d
skinparam NoteBorderColor #96a7b8
skinparam NoteBackgroundColor #fffdf3

actor Application as App
participant "Station/Core" as Sta
participant Runner as Run
participant "Driver/Stream" as Drv
participant "Remote peer" as Peer

App -> Sta: ioHdlcStationInit(...)
App -> Sta: ioHdlcAddPeer(...)
App -> Run: start runner/backend
Run -> Drv: arm RX/TX callbacks
App -> Sta: ioHdlcStationLinkUp(...)
Sta -> Drv: submit link-setup frames
Drv -> Peer: transmit HDLC frames
Peer - -> Drv: UA / RR / I-frames
Drv - -> Sta: RX completion callbacks
App -> Sta: ioHdlcWrite(...) / ioHdlcRead(...)
Sta -> Drv: data and supervisory traffic
App -> Sta: ioHdlcStationLinkDown(...)
App -> Run: stop runner/backend

@enduml

PlantUML version 1.2020.02(Sun Mar 01 11:22:07 CET 2020)
(GPL source distribution)
Java Runtime: OpenJDK Runtime Environment
JVM: OpenJDK 64-Bit Server VM
Java Version: 21.0.10+7-Ubuntu-122.04
Operating System: Linux
Default Encoding: UTF-8
Language: it
Country: IT
--></g></svg>