<?xml version="1.0" encoding="UTF-8" standalone="no"?><svg xmlns="http://www.w3.org/2000/svg" xmlns:xlink="http://www.w3.org/1999/xlink" contentScriptType="application/ecmascript" contentStyleType="text/css" height="551px" preserveAspectRatio="none" style="width:753px;height:551px;" version="1.1" viewBox="0 0 753 551" width="753px" zoomAndPan="magnify"><defs/><g><line style="stroke: #5A7088; stroke-width: 1.0; stroke-dasharray: 5.0,5.0;" x1="48" x2="48" y1="82.2969" y2="539.2891"/><line style="stroke: #5A7088; stroke-width: 1.0; stroke-dasharray: 5.0,5.0;" x1="270.5" x2="270.5" y1="82.2969" y2="539.2891"/><line style="stroke: #5A7088; stroke-width: 1.0; stroke-dasharray: 5.0,5.0;" x1="368" x2="368" y1="82.2969" y2="539.2891"/><line style="stroke: #5A7088; stroke-width: 1.0; stroke-dasharray: 5.0,5.0;" x1="522.5" x2="522.5" y1="82.2969" y2="539.2891"/><line style="stroke: #5A7088; stroke-width: 1.0; stroke-dasharray: 5.0,5.0;" x1="689" x2="689" y1="82.2969" y2="539.2891"/><text fill="#000000" font-family="sans-serif" font-size="14" lengthAdjust="spacingAndGlyphs" textLength="75" x="8" y="78.9951">Application</text><ellipse cx="48.5" cy="13" fill="#FEFECE" rx="8" ry="8" style="stroke: #A80036; stroke-width: 2.0;"/><path d="M48.5,21 L48.5,48 M35.5,29 L61.5,29 M48.5,48 L35.5,63 M48.5,48 L61.5,63 " fill="none" style="stroke: #A80036; stroke-width: 2.0;"/><rect fill="#F7FBFF" height="30.2969" style="stroke: #4D6A86; stroke-width: 1.5;" width="100" x="220.5" y="51"/><text fill="#1F2F3D" font-family="sans-serif" font-size="14" lengthAdjust="spacingAndGlyphs" textLength="86" x="227.5" y="70.9951">Station/Core</text><rect fill="#F7FBFF" height="30.2969" style="stroke: #4D6A86; stroke-width: 1.5;" width="65" x="336" y="51"/><text fill="#1F2F3D" font-family="sans-serif" font-size="14" lengthAdjust="spacingAndGlyphs" textLength="51" x="343" y="70.9951">Runner</text><rect fill="#F7FBFF" height="30.2969" style="stroke: #4D6A86; stroke-width: 1.5;" width="108" x="468.5" y="51"/><text fill="#1F2F3D" font-family="sans-serif" font-size="14" lengthAdjust="spacingAndGlyphs" textLength="94" x="475.5" y="70.9951">Driver/Stream</text><rect fill="#F7FBFF" height="30.2969" style="stroke: #4D6A86; stroke-width: 1.5;" width="105" x="637" y="51"/><text fill="#1F2F3D" font-family="sans-serif" font-size="14" lengthAdjust="spacingAndGlyphs" textLength="91" x="644" y="70.9951">Remote peer</text><polygon fill="#5A7088" points="258.5,109.4297,268.5,113.4297,258.5,117.4297,262.5,113.4297" style="stroke: #5A7088; stroke-width: 1.0;"/><line style="stroke: #5A7088; stroke-width: 1.0;" x1="48.5" x2="264.5" y1="113.4297" y2="113.4297"/><text fill="#000000" font-family="sans-serif" font-size="13" lengthAdjust="spacingAndGlyphs" textLength="126" x="55.5" y="108.3638">ioHdlcStationInit(...)</text><polygon fill="#5A7088" points="510.5,138.5625,520.5,142.5625,510.5,146.5625,514.5,142.5625" style="stroke: #5A7088; stroke-width: 1.0;"/><line style="stroke: #5A7088; stroke-width: 1.0;" x1="270.5" x2="516.5" y1="142.5625" y2="142.5625"/><text fill="#000000" font-family="sans-serif" font-size="13" lengthAdjust="spacingAndGlyphs" textLength="228" x="277.5" y="137.4966">start framed driver (if phydriver set)</text><polygon fill="#5A7088" points="258.5,167.6953,268.5,171.6953,258.5,175.6953,262.5,171.6953" style="stroke: #5A7088; stroke-width: 1.0;"/><line style="stroke: #5A7088; stroke-width: 1.0;" x1="48.5" x2="264.5" y1="171.6953" y2="171.6953"/><text fill="#000000" font-family="sans-serif" font-size="13" lengthAdjust="spacingAndGlyphs" textLength="115" x="55.5" y="166.6294">ioHdlcAddPeer(...)</text><polygon fill="#5A7088" points="356.5,196.8281,366.5,200.8281,356.5,204.8281,360.5,200.8281" style="stroke: #5A7088; stroke-width: 1.0;"/><line style="stroke: #5A7088; stroke-width: 1.0;" x1="48.5" x2="362.5" y1="200.8281" y2="200.8281"/><text fill="#000000" font-family="sans-serif" font-size="13" lengthAdjust="spacingAndGlyphs" textLength="138" x="55.5" y="195.7622">ioHdlcRunnerStart(...)</text><polygon fill="#5A7088" points="258.5,225.9609,268.5,229.9609,258.5,233.9609,262.5,229.9609" style="stroke: #5A7088; stroke-width: 1.0;"/><line style="stroke: #5A7088; stroke-width: 1.0;" x1="48.5" x2="264.5" y1="229.9609" y2="229.9609"/><text fill="#000000" font-family="sans-serif" font-size="13" lengthAdjust="spacingAndGlyphs" textLength="150" x="55.5" y="224.895">ioHdlcStationLinkUp(...)</text><polygon fill="#5A7088" points="510.5,255.0938,520.5,259.0938,510.5,263.0938,514.5,259.0938" style="stroke: #5A7088; stroke-width: 1.0;"/><line style="stroke: #5A7088; stroke-width: 1.0;" x1="270.5" x2="516.5" y1="259.0938" y2="259.0938"/><text fill="#000000" font-family="sans-serif" font-size="13" lengthAdjust="spacingAndGlyphs" textLength="159" x="277.5" y="254.0278">submit link-setup frames</text><polygon fill="#5A7088" points="677.5,284.2266,687.5,288.2266,677.5,292.2266,681.5,288.2266" style="stroke: #5A7088; stroke-width: 1.0;"/><line style="stroke: #5A7088; stroke-width: 1.0;" x1="522.5" x2="683.5" y1="288.2266" y2="288.2266"/><text fill="#000000" font-family="sans-serif" font-size="13" lengthAdjust="spacingAndGlyphs" textLength="143" x="529.5" y="283.1606">transmit HDLC frames</text><polygon fill="#5A7088" points="533.5,313.3594,523.5,317.3594,533.5,321.3594,529.5,317.3594" style="stroke: #5A7088; stroke-width: 1.0;"/><line style="stroke: #5A7088; stroke-width: 1.0; stroke-dasharray: 2.0,2.0;" x1="527.5" x2="688.5" y1="317.3594" y2="317.3594"/><text fill="#000000" font-family="sans-serif" font-size="13" lengthAdjust="spacingAndGlyphs" textLength="112" x="539.5" y="312.2935">UA / RR / I-frames</text><polygon fill="#5A7088" points="281.5,342.4922,271.5,346.4922,281.5,350.4922,277.5,346.4922" style="stroke: #5A7088; stroke-width: 1.0;"/><line style="stroke: #5A7088; stroke-width: 1.0; stroke-dasharray: 2.0,2.0;" x1="275.5" x2="521.5" y1="346.4922" y2="346.4922"/><text fill="#000000" font-family="sans-serif" font-size="13" lengthAdjust="spacingAndGlyphs" textLength="153" x="287.5" y="341.4263">RX completion callbacks</text><polygon fill="#5A7088" points="258.5,371.625,268.5,375.625,258.5,379.625,262.5,375.625" style="stroke: #5A7088; stroke-width: 1.0;"/><line style="stroke: #5A7088; stroke-width: 1.0;" x1="48.5" x2="264.5" y1="375.625" y2="375.625"/><text fill="#000000" font-family="sans-serif" font-size="13" lengthAdjust="spacingAndGlyphs" textLength="198" x="55.5" y="370.5591">ioHdlcWrite(...) / ioHdlcRead(...)</text><polygon fill="#5A7088" points="510.5,400.7578,520.5,404.7578,510.5,408.7578,514.5,404.7578" style="stroke: #5A7088; stroke-width: 1.0;"/><line style="stroke: #5A7088; stroke-width: 1.0;" x1="270.5" x2="516.5" y1="404.7578" y2="404.7578"/><text fill="#000000" font-family="sans-serif" font-size="13" lengthAdjust="spacingAndGlyphs" textLength="174" x="277.5" y="399.6919">data and supervisory traffic</text><polygon fill="#5A7088" points="258.5,429.8906,268.5,433.8906,258.5,437.8906,262.5,433.8906" style="stroke: #5A7088; stroke-width: 1.0;"/><line style="stroke: #5A7088; stroke-width: 1.0;" x1="48.5" x2="264.5" y1="433.8906" y2="433.8906"/><text fill="#000000" font-family="sans-serif" font-size="13" lengthAdjust="spacingAndGlyphs" textLength="167" x="55.5" y="428.8247">ioHdlcStationLinkDown(...)</text><polygon fill="#5A7088" points="258.5,459.0234,268.5,463.0234,258.5,467.0234,262.5,463.0234" style="stroke: #5A7088; stroke-width: 1.0;"/><line style="stroke: #5A7088; stroke-width: 1.0;" x1="48.5" x2="264.5" y1="463.0234" y2="463.0234"/><text fill="#000000" font-family="sans-serif" font-size="13" lengthAdjust="spacingAndGlyphs" textLength="144" x="55.5" y="457.9575">ioHdlcStationDeinit(...)</text><polygon fill="#5A7088" points="356.5,488.1563,366.5,492.1563,356.5,496.1563,360.5,492.1563" style="stroke: #5A7088; stroke-width: 1.0;"/><line style="stroke: #5A7088; stroke-width: 1.0;" x1="270.5" x2="362.5" y1="492.1563" y2="492.1563"/><text fill="#000000" font-family="sans-serif" font-size="13" lengthAdjust="spacingAndGlyphs" textLength="74" x="277.5" y="487.0903">stop runner</text><polygon fill="#5A7088" points="510.5,517.2891,520.5,521.2891,510.5,525.2891,514.5,521.2891" style="stroke: #5A7088; stroke-width: 1.0;"/><line style="stroke: #5A7088; stroke-width: 1.0;" x1="270.5" x2="516.5" y1="521.2891" y2="521.2891"/><text fill="#000000" font-family="sans-serif" font-size="13" lengthAdjust="spacingAndGlyphs" textLength="118" x="277.5" y="516.2231">stop framed driver</text><!--MD5=[6cc11c40db88d8174601d6abc28788c5]
@startuml
hide footbox

skinparam backgroundColor transparent
skinparam shadowing false
skinparam ArrowColor #5a7088
skinparam SequenceLifeLineBorderColor #5a7088
skinparam SequenceLifeLineBackgroundColor #f7fbff
skinparam ParticipantBorderColor #4d6a86
skinparam ParticipantBackgroundColor #f7fbff
skinparam ParticipantFontColor #1f2f3d
skinparam NoteBorderColor #96a7b8
skinparam NoteBackgroundColor #fffdf3

actor Application as App
participant "Station/Core" as Sta
participant Runner as Run
participant "Driver/Stream" as Drv
participant "Remote peer" as Peer

App -> Sta: ioHdlcStationInit(...)
Sta -> Drv: start framed driver (if phydriver set)
App -> Sta: ioHdlcAddPeer(...)
App -> Run: ioHdlcRunnerStart(...)
App -> Sta: ioHdlcStationLinkUp(...)
Sta -> Drv: submit link-setup frames
Drv -> Peer: transmit HDLC frames
Peer - -> Drv: UA / RR / I-frames
Drv - -> Sta: RX completion callbacks
App -> Sta: ioHdlcWrite(...) / ioHdlcRead(...)
Sta -> Drv: data and supervisory traffic
App -> Sta: ioHdlcStationLinkDown(...)
App -> Sta: ioHdlcStationDeinit(...)
Sta -> Run: stop runner
Sta -> Drv: stop framed driver

@enduml

PlantUML version 1.2020.02(Sun Mar 01 11:22:07 CET 2020)
(GPL source distribution)
Java Runtime: OpenJDK Runtime Environment
JVM: OpenJDK 64-Bit Server VM
Java Version: 21.0.10+7-Ubuntu-122.04
Operating System: Linux
Default Encoding: UTF-8
Language: en
Country: null
--></g></svg>