<?xml version="1.0" encoding="UTF-8" standalone="no"?>
<!DOCTYPE svg PUBLIC "-//W3C//DTD SVG 1.1//EN"
 "http://www.w3.org/Graphics/SVG/1.1/DTD/svg11.dtd">
<!-- Generated by graphviz version 2.43.0 (0)
 -->
<!-- Title: iohdlc_rx_data_flow Pages: 1 -->
<svg width="181pt" height="369pt"
 viewBox="0.00 0.00 181.00 369.00" xmlns="http://www.w3.org/2000/svg" xmlns:xlink="http://www.w3.org/1999/xlink">
<g id="graph0" class="graph" transform="scale(1 1) rotate(0) translate(4 365)">
<title>iohdlc_rx_data_flow</title>
<!-- Wire -->
<g id="node1" class="node">
<title>Wire</title>
<path fill="#f7fbff" stroke="#4d6a86" stroke-width="1.2" d="M128,-361C128,-361 45,-361 45,-361 39,-361 33,-355 33,-349 33,-349 33,-337 33,-337 33,-331 39,-325 45,-325 45,-325 128,-325 128,-325 134,-325 140,-331 140,-337 140,-337 140,-349 140,-349 140,-355 134,-361 128,-361"/>
<text text-anchor="middle" x="86.5" y="-340.2" font-family="Helvetica,sans-Serif" font-size="11.00">Transport / wire</text>
</g>
<!-- Backend -->
<g id="node2" class="node">
<title>Backend</title>
<path fill="#f7fbff" stroke="#4d6a86" stroke-width="1.2" d="M161,-296C161,-296 12,-296 12,-296 6,-296 0,-290 0,-284 0,-284 0,-272 0,-272 0,-266 6,-260 12,-260 12,-260 161,-260 161,-260 167,-260 173,-266 173,-272 173,-272 173,-284 173,-284 173,-290 167,-296 161,-296"/>
<text text-anchor="middle" x="86.5" y="-281.2" font-family="Helvetica,sans-Serif" font-size="11.00">Stream backend / hardware</text>
<text text-anchor="middle" x="86.5" y="-269.2" font-family="Helvetica,sans-Serif" font-size="11.00">RX progress or error</text>
</g>
<!-- Wire&#45;&gt;Backend -->
<g id="edge1" class="edge">
<title>Wire&#45;&gt;Backend</title>
<path fill="none" stroke="#5a7088" stroke-width="1.1" d="M86.5,-324.89C86.5,-324.89 86.5,-304.01 86.5,-304.01"/>
<polygon fill="#5a7088" stroke="#5a7088" stroke-width="1.1" points="89.3,-304.01 86.5,-296.01 83.7,-304.01 89.3,-304.01"/>
</g>
<!-- Driver -->
<g id="node3" class="node">
<title>Driver</title>
<path fill="#f7fbff" stroke="#4d6a86" stroke-width="1.2" d="M151,-231C151,-231 22,-231 22,-231 16,-231 10,-225 10,-219 10,-219 10,-207 10,-207 10,-201 16,-195 22,-195 22,-195 151,-195 151,-195 157,-195 163,-201 163,-207 163,-207 163,-219 163,-219 163,-225 157,-231 151,-231"/>
<text text-anchor="middle" x="86.5" y="-216.2" font-family="Helvetica,sans-Serif" font-size="11.00">Software driver RX path</text>
<text text-anchor="middle" x="86.5" y="-204.2" font-family="Helvetica,sans-Serif" font-size="11.00">re&#45;arm, validate, parse</text>
</g>
<!-- Backend&#45;&gt;Driver -->
<g id="edge2" class="edge">
<title>Backend&#45;&gt;Driver</title>
<path fill="none" stroke="#5a7088" stroke-width="1.1" d="M86.5,-259.89C86.5,-259.89 86.5,-239.01 86.5,-239.01"/>
<polygon fill="#5a7088" stroke="#5a7088" stroke-width="1.1" points="89.3,-239.01 86.5,-231.01 83.7,-239.01 89.3,-239.01"/>
</g>
<!-- Core -->
<g id="node4" class="node">
<title>Core</title>
<path fill="#f7fbff" stroke="#4d6a86" stroke-width="1.2" d="M138,-166C138,-166 35,-166 35,-166 29,-166 23,-160 23,-154 23,-154 23,-142 23,-142 23,-136 29,-130 35,-130 35,-130 138,-130 138,-130 144,-130 150,-136 150,-142 150,-142 150,-154 150,-154 150,-160 144,-166 138,-166"/>
<text text-anchor="middle" x="86.5" y="-151.2" font-family="Helvetica,sans-Serif" font-size="11.00">Core</text>
<text text-anchor="middle" x="86.5" y="-139.2" font-family="Helvetica,sans-Serif" font-size="11.00">ioHdlcOnRxFrame()</text>
</g>
<!-- Driver&#45;&gt;Core -->
<g id="edge3" class="edge">
<title>Driver&#45;&gt;Core</title>
<path fill="none" stroke="#5a7088" stroke-width="1.1" d="M86.5,-194.89C86.5,-194.89 86.5,-174.01 86.5,-174.01"/>
<polygon fill="#5a7088" stroke="#5a7088" stroke-width="1.1" points="89.3,-174.01 86.5,-166.01 83.7,-174.01 89.3,-174.01"/>
</g>
<!-- State -->
<g id="node5" class="node">
<title>State</title>
<path fill="#f7fbff" stroke="#4d6a86" stroke-width="1.2" d="M152.5,-101C152.5,-101 20.5,-101 20.5,-101 14.5,-101 8.5,-95 8.5,-89 8.5,-89 8.5,-77 8.5,-77 8.5,-71 14.5,-65 20.5,-65 20.5,-65 152.5,-65 152.5,-65 158.5,-65 164.5,-71 164.5,-77 164.5,-77 164.5,-89 164.5,-89 164.5,-95 158.5,-101 152.5,-101"/>
<text text-anchor="middle" x="86.5" y="-86.2" font-family="Helvetica,sans-Serif" font-size="11.00">Protocol state update</text>
<text text-anchor="middle" x="86.5" y="-74.2" font-family="Helvetica,sans-Serif" font-size="11.00">N(S)/N(R), U/S/I handling</text>
</g>
<!-- Core&#45;&gt;State -->
<g id="edge4" class="edge">
<title>Core&#45;&gt;State</title>
<path fill="none" stroke="#5a7088" stroke-width="1.1" d="M86.5,-129.89C86.5,-129.89 86.5,-109.01 86.5,-109.01"/>
<polygon fill="#5a7088" stroke="#5a7088" stroke-width="1.1" points="89.3,-109.01 86.5,-101.01 83.7,-109.01 89.3,-109.01"/>
</g>
<!-- App -->
<g id="node6" class="node">
<title>App</title>
<path fill="#f7fbff" stroke="#4d6a86" stroke-width="1.2" d="M156.5,-36C156.5,-36 16.5,-36 16.5,-36 10.5,-36 4.5,-30 4.5,-24 4.5,-24 4.5,-12 4.5,-12 4.5,-6 10.5,0 16.5,0 16.5,0 156.5,0 156.5,0 162.5,0 168.5,-6 168.5,-12 168.5,-12 168.5,-24 168.5,-24 168.5,-30 162.5,-36 156.5,-36"/>
<text text-anchor="middle" x="86.5" y="-21.2" font-family="Helvetica,sans-Serif" font-size="11.00">Application</text>
<text text-anchor="middle" x="86.5" y="-9.2" font-family="Helvetica,sans-Serif" font-size="11.00">read wakeup / app events</text>
</g>
<!-- State&#45;&gt;App -->
<g id="edge5" class="edge">
<title>State&#45;&gt;App</title>
<path fill="none" stroke="#5a7088" stroke-width="1.1" d="M86.5,-64.89C86.5,-64.89 86.5,-44.01 86.5,-44.01"/>
<polygon fill="#5a7088" stroke="#5a7088" stroke-width="1.1" points="89.3,-44.01 86.5,-36.01 83.7,-44.01 89.3,-44.01"/>
</g>
</g>
</svg>
