<?xml version="1.0" encoding="UTF-8" standalone="no"?><svg xmlns="http://www.w3.org/2000/svg" xmlns:xlink="http://www.w3.org/1999/xlink" contentScriptType="application/ecmascript" contentStyleType="text/css" height="574px" preserveAspectRatio="none" style="width:1156px;height:574px;" version="1.1" viewBox="0 0 1156 574" width="1156px" zoomAndPan="magnify"><defs/><g><line style="stroke: #5A7088; stroke-width: 1.0; stroke-dasharray: 5.0,5.0;" x1="53" x2="53" y1="34.2969" y2="562.5547"/><line style="stroke: #5A7088; stroke-width: 1.0; stroke-dasharray: 5.0,5.0;" x1="251" x2="251" y1="34.2969" y2="562.5547"/><line style="stroke: #5A7088; stroke-width: 1.0; stroke-dasharray: 5.0,5.0;" x1="509" x2="509" y1="34.2969" y2="562.5547"/><line style="stroke: #5A7088; stroke-width: 1.0; stroke-dasharray: 5.0,5.0;" x1="655" x2="655" y1="34.2969" y2="562.5547"/><line style="stroke: #5A7088; stroke-width: 1.0; stroke-dasharray: 5.0,5.0;" x1="904" x2="904" y1="34.2969" y2="562.5547"/><line style="stroke: #5A7088; stroke-width: 1.0; stroke-dasharray: 5.0,5.0;" x1="1105.5" x2="1105.5" y1="34.2969" y2="562.5547"/><rect fill="#F7FBFF" height="30.2969" style="stroke: #4D6A86; stroke-width: 1.5;" width="90" x="8" y="3"/><text fill="#1F2F3D" font-family="sans-serif" font-size="14" lengthAdjust="spacingAndGlyphs" textLength="76" x="15" y="22.9951">App thread</text><rect fill="#F7FBFF" height="30.2969" style="stroke: #4D6A86; stroke-width: 1.5;" width="100" x="201" y="3"/><text fill="#1F2F3D" font-family="sans-serif" font-size="14" lengthAdjust="spacingAndGlyphs" textLength="86" x="208" y="22.9951">Station/Core</text><rect fill="#F7FBFF" height="30.2969" style="stroke: #4D6A86; stroke-width: 1.5;" width="82" x="468" y="3"/><text fill="#1F2F3D" font-family="sans-serif" font-size="14" lengthAdjust="spacingAndGlyphs" textLength="68" x="475" y="22.9951">TX runner</text><rect fill="#F7FBFF" height="30.2969" style="stroke: #4D6A86; stroke-width: 1.5;" width="76" x="617" y="3"/><text fill="#1F2F3D" font-family="sans-serif" font-size="14" lengthAdjust="spacingAndGlyphs" textLength="62" x="624" y="22.9951">Sw driver</text><rect fill="#F7FBFF" height="30.2969" style="stroke: #4D6A86; stroke-width: 1.5;" width="120" x="844" y="3"/><text fill="#1F2F3D" font-family="sans-serif" font-size="14" lengthAdjust="spacingAndGlyphs" textLength="106" x="851" y="22.9951">Stream adapter</text><rect fill="#F7FBFF" height="30.2969" style="stroke: #4D6A86; stroke-width: 1.5;" width="79" x="1066.5" y="3"/><text fill="#1F2F3D" font-family="sans-serif" font-size="14" lengthAdjust="spacingAndGlyphs" textLength="65" x="1073.5" y="22.9951">Hardware</text><polygon fill="#5A7088" points="239,61.4297,249,65.4297,239,69.4297,243,65.4297" style="stroke: #5A7088; stroke-width: 1.0;"/><line style="stroke: #5A7088; stroke-width: 1.0;" x1="53" x2="245" y1="65.4297" y2="65.4297"/><text fill="#000000" font-family="sans-serif" font-size="13" lengthAdjust="spacingAndGlyphs" textLength="174" x="60" y="60.3638">ioHdlcWrite(peer, data, len)</text><polygon fill="#5A7088" points="497,90.5625,507,94.5625,497,98.5625,501,94.5625" style="stroke: #5A7088; stroke-width: 1.0;"/><line style="stroke: #5A7088; stroke-width: 1.0;" x1="251" x2="503" y1="94.5625" y2="94.5625"/><text fill="#000000" font-family="sans-serif" font-size="13" lengthAdjust="spacingAndGlyphs" textLength="89" x="258" y="89.4966">signal TX work</text><polygon fill="#5A7088" points="262,119.6953,252,123.6953,262,127.6953,258,123.6953" style="stroke: #5A7088; stroke-width: 1.0;"/><line style="stroke: #5A7088; stroke-width: 1.0;" x1="256" x2="508" y1="123.6953" y2="123.6953"/><text fill="#000000" font-family="sans-serif" font-size="13" lengthAdjust="spacingAndGlyphs" textLength="135" x="268" y="118.6294">take frame from pool</text><polygon fill="#5A7088" points="262,148.8281,252,152.8281,262,156.8281,258,152.8281" style="stroke: #5A7088; stroke-width: 1.0;"/><line style="stroke: #5A7088; stroke-width: 1.0;" x1="256" x2="508" y1="152.8281" y2="152.8281"/><text fill="#000000" font-family="sans-serif" font-size="13" lengthAdjust="spacingAndGlyphs" textLength="234" x="268" y="147.7622">encode HDLC fields and tx_snapshot</text><polygon fill="#5A7088" points="643,177.9609,653,181.9609,643,185.9609,647,181.9609" style="stroke: #5A7088; stroke-width: 1.0;"/><line style="stroke: #5A7088; stroke-width: 1.0;" x1="509" x2="649" y1="181.9609" y2="181.9609"/><text fill="#000000" font-family="sans-serif" font-size="13" lengthAdjust="spacingAndGlyphs" textLength="122" x="516" y="176.895">hdlcSendFrame(fp)</text><polygon fill="#5A7088" points="892,207.0938,902,211.0938,892,215.0938,896,211.0938" style="stroke: #5A7088; stroke-width: 1.0;"/><line style="stroke: #5A7088; stroke-width: 1.0;" x1="655" x2="898" y1="211.0938" y2="211.0938"/><text fill="#000000" font-family="sans-serif" font-size="13" lengthAdjust="spacingAndGlyphs" textLength="130" x="662" y="206.0278">tx_submit_frame(fp)</text><polygon fill="#5A7088" points="1094,236.2266,1104,240.2266,1094,244.2266,1098,240.2266" style="stroke: #5A7088; stroke-width: 1.0;"/><line style="stroke: #5A7088; stroke-width: 1.0;" x1="904" x2="1100" y1="240.2266" y2="240.2266"/><text fill="#000000" font-family="sans-serif" font-size="13" lengthAdjust="spacingAndGlyphs" textLength="49" x="911" y="235.1606">start TX</text><polygon fill="#5A7088" points="915,265.3594,905,269.3594,915,273.3594,911,269.3594" style="stroke: #5A7088; stroke-width: 1.0;"/><line style="stroke: #5A7088; stroke-width: 1.0; stroke-dasharray: 2.0,2.0;" x1="909" x2="1105" y1="269.3594" y2="269.3594"/><text fill="#000000" font-family="sans-serif" font-size="13" lengthAdjust="spacingAndGlyphs" textLength="178" x="921" y="264.2935">TX complete interrupt/event</text><polygon fill="#5A7088" points="666,294.4922,656,298.4922,666,302.4922,662,298.4922" style="stroke: #5A7088; stroke-width: 1.0;"/><line style="stroke: #5A7088; stroke-width: 1.0; stroke-dasharray: 2.0,2.0;" x1="660" x2="903" y1="298.4922" y2="298.4922"/><text fill="#000000" font-family="sans-serif" font-size="13" lengthAdjust="spacingAndGlyphs" textLength="96" x="672" y="293.4263">on_tx_done(fp)</text><polygon fill="#5A7088" points="892,323.625,902,327.625,892,331.625,896,327.625" style="stroke: #5A7088; stroke-width: 1.0;"/><line style="stroke: #5A7088; stroke-width: 1.0;" x1="655" x2="898" y1="327.625" y2="327.625"/><text fill="#000000" font-family="sans-serif" font-size="13" lengthAdjust="spacingAndGlyphs" textLength="225" x="662" y="322.5591">tx_submit_frame(next fp) if queued</text><polygon fill="#5A7088" points="892,352.7578,902,356.7578,892,360.7578,896,356.7578" style="stroke: #5A7088; stroke-width: 1.0;"/><line style="stroke: #5A7088; stroke-width: 1.0;" x1="655" x2="898" y1="356.7578" y2="356.7578"/><text fill="#000000" font-family="sans-serif" font-size="13" lengthAdjust="spacingAndGlyphs" textLength="120" x="662" y="351.6919">rx_submit(buf, len)</text><polygon fill="#5A7088" points="1094,381.8906,1104,385.8906,1094,389.8906,1098,385.8906" style="stroke: #5A7088; stroke-width: 1.0;"/><line style="stroke: #5A7088; stroke-width: 1.0;" x1="904" x2="1100" y1="385.8906" y2="385.8906"/><text fill="#000000" font-family="sans-serif" font-size="13" lengthAdjust="spacingAndGlyphs" textLength="159" x="911" y="380.8247">arm receive / DMA buffer</text><polygon fill="#5A7088" points="915,411.0234,905,415.0234,915,419.0234,911,415.0234" style="stroke: #5A7088; stroke-width: 1.0;"/><line style="stroke: #5A7088; stroke-width: 1.0; stroke-dasharray: 2.0,2.0;" x1="909" x2="1105" y1="415.0234" y2="415.0234"/><text fill="#000000" font-family="sans-serif" font-size="13" lengthAdjust="spacingAndGlyphs" textLength="155" x="921" y="409.9575">RX ready interrupt/event</text><polygon fill="#5A7088" points="666,440.1563,656,444.1563,666,448.1563,662,444.1563" style="stroke: #5A7088; stroke-width: 1.0;"/><line style="stroke: #5A7088; stroke-width: 1.0; stroke-dasharray: 2.0,2.0;" x1="660" x2="903" y1="444.1563" y2="444.1563"/><text fill="#000000" font-family="sans-serif" font-size="13" lengthAdjust="spacingAndGlyphs" textLength="85" x="672" y="439.0903">on_rx(status)</text><polygon fill="#5A7088" points="262,469.2891,252,473.2891,262,477.2891,258,473.2891" style="stroke: #5A7088; stroke-width: 1.0;"/><line style="stroke: #5A7088; stroke-width: 1.0; stroke-dasharray: 2.0,2.0;" x1="256" x2="654" y1="473.2891" y2="473.2891"/><text fill="#000000" font-family="sans-serif" font-size="13" lengthAdjust="spacingAndGlyphs" textLength="170" x="268" y="468.2231">completed frame available</text><line style="stroke: #5A7088; stroke-width: 1.0;" x1="251" x2="293" y1="502.4219" y2="502.4219"/><line style="stroke: #5A7088; stroke-width: 1.0;" x1="293" x2="293" y1="502.4219" y2="515.4219"/><line style="stroke: #5A7088; stroke-width: 1.0;" x1="252" x2="293" y1="515.4219" y2="515.4219"/><polygon fill="#5A7088" points="262,511.4219,252,515.4219,262,519.4219,258,515.4219" style="stroke: #5A7088; stroke-width: 1.0;"/><text fill="#000000" font-family="sans-serif" font-size="13" lengthAdjust="spacingAndGlyphs" textLength="192" x="258" y="497.356">parse frame and update state</text><polygon fill="#5A7088" points="64,540.5547,54,544.5547,64,548.5547,60,544.5547" style="stroke: #5A7088; stroke-width: 1.0;"/><line style="stroke: #5A7088; stroke-width: 1.0; stroke-dasharray: 2.0,2.0;" x1="58" x2="250" y1="544.5547" y2="544.5547"/><text fill="#000000" font-family="sans-serif" font-size="13" lengthAdjust="spacingAndGlyphs" textLength="168" x="70" y="539.4888">wake readers / app events</text><!--MD5=[e53ccab8000f07edc017f7a354c4bb65]
@startuml
hide footbox

skinparam backgroundColor transparent
skinparam shadowing false
skinparam ArrowColor #5a7088
skinparam SequenceLifeLineBorderColor #5a7088
skinparam SequenceLifeLineBackgroundColor #f7fbff
skinparam ParticipantBorderColor #4d6a86
skinparam ParticipantBackgroundColor #f7fbff
skinparam ParticipantFontColor #1f2f3d
skinparam NoteBorderColor #96a7b8
skinparam NoteBackgroundColor #fffdf3

participant "App thread" as App
participant "Station/Core" as Core
participant "TX runner" as Tx
participant "Sw driver" as Drv
participant "Stream adapter" as Port
participant Hardware as Hw

App -> Core: ioHdlcWrite(peer, data, len)
Core -> Tx: signal TX work
Tx -> Core: take frame from pool
Tx -> Core: encode HDLC fields and tx_snapshot
Tx -> Drv: hdlcSendFrame(fp)
Drv -> Port: tx_submit_frame(fp)
Port -> Hw: start TX
Hw - -> Port: TX complete interrupt/event
Port - -> Drv: on_tx_done(fp)
Drv -> Port: tx_submit_frame(next fp) if queued
Drv -> Port: rx_submit(buf, len)
Port -> Hw: arm receive / DMA buffer
Hw - -> Port: RX ready interrupt/event
Port - -> Drv: on_rx(status)
Drv - -> Core: completed frame available
Core -> Core: parse frame and update state
Core - -> App: wake readers / app events

@enduml

PlantUML version 1.2020.02(Sun Mar 01 11:22:07 CET 2020)
(GPL source distribution)
Java Runtime: OpenJDK Runtime Environment
JVM: OpenJDK 64-Bit Server VM
Java Version: 21.0.10+7-Ubuntu-122.04
Operating System: Linux
Default Encoding: UTF-8
Language: en
Country: null
--></g></svg>