<?xml version="1.0" encoding="UTF-8" standalone="no"?><svg xmlns="http://www.w3.org/2000/svg" xmlns:xlink="http://www.w3.org/1999/xlink" contentScriptType="application/ecmascript" contentStyleType="text/css" height="458px" preserveAspectRatio="none" style="width:844px;height:458px;" version="1.1" viewBox="0 0 844 458" width="844px" zoomAndPan="magnify"><defs/><g><line style="stroke: #5A7088; stroke-width: 1.0; stroke-dasharray: 5.0,5.0;" x1="53" x2="53" y1="34.2969" y2="446.0234"/><line style="stroke: #5A7088; stroke-width: 1.0; stroke-dasharray: 5.0,5.0;" x1="251" x2="251" y1="34.2969" y2="446.0234"/><line style="stroke: #5A7088; stroke-width: 1.0; stroke-dasharray: 5.0,5.0;" x1="457" x2="457" y1="34.2969" y2="446.0234"/><line style="stroke: #5A7088; stroke-width: 1.0; stroke-dasharray: 5.0,5.0;" x1="592" x2="592" y1="34.2969" y2="446.0234"/><line style="stroke: #5A7088; stroke-width: 1.0; stroke-dasharray: 5.0,5.0;" x1="793.5" x2="793.5" y1="34.2969" y2="446.0234"/><rect fill="#F7FBFF" height="30.2969" style="stroke: #4D6A86; stroke-width: 1.5;" width="90" x="8" y="3"/><text fill="#1F2F3D" font-family="sans-serif" font-size="14" lengthAdjust="spacingAndGlyphs" textLength="76" x="15" y="22.9951">App thread</text><rect fill="#F7FBFF" height="30.2969" style="stroke: #4D6A86; stroke-width: 1.5;" width="100" x="201" y="3"/><text fill="#1F2F3D" font-family="sans-serif" font-size="14" lengthAdjust="spacingAndGlyphs" textLength="86" x="208" y="22.9951">Station/Core</text><rect fill="#F7FBFF" height="30.2969" style="stroke: #4D6A86; stroke-width: 1.5;" width="82" x="416" y="3"/><text fill="#1F2F3D" font-family="sans-serif" font-size="14" lengthAdjust="spacingAndGlyphs" textLength="68" x="423" y="22.9951">TX runner</text><rect fill="#F7FBFF" height="30.2969" style="stroke: #4D6A86; stroke-width: 1.5;" width="108" x="538" y="3"/><text fill="#1F2F3D" font-family="sans-serif" font-size="14" lengthAdjust="spacingAndGlyphs" textLength="94" x="545" y="22.9951">Driver/Stream</text><rect fill="#F7FBFF" height="30.2969" style="stroke: #4D6A86; stroke-width: 1.5;" width="79" x="754.5" y="3"/><text fill="#1F2F3D" font-family="sans-serif" font-size="14" lengthAdjust="spacingAndGlyphs" textLength="65" x="761.5" y="22.9951">Hardware</text><polygon fill="#5A7088" points="239,61.4297,249,65.4297,239,69.4297,243,65.4297" style="stroke: #5A7088; stroke-width: 1.0;"/><line style="stroke: #5A7088; stroke-width: 1.0;" x1="53" x2="245" y1="65.4297" y2="65.4297"/><text fill="#000000" font-family="sans-serif" font-size="13" lengthAdjust="spacingAndGlyphs" textLength="174" x="60" y="60.3638">ioHdlcWrite(peer, data, len)</text><polygon fill="#5A7088" points="445,90.5625,455,94.5625,445,98.5625,449,94.5625" style="stroke: #5A7088; stroke-width: 1.0;"/><line style="stroke: #5A7088; stroke-width: 1.0;" x1="251" x2="451" y1="94.5625" y2="94.5625"/><text fill="#000000" font-family="sans-serif" font-size="13" lengthAdjust="spacingAndGlyphs" textLength="89" x="258" y="89.4966">signal TX work</text><polygon fill="#5A7088" points="262,119.6953,252,123.6953,262,127.6953,258,123.6953" style="stroke: #5A7088; stroke-width: 1.0;"/><line style="stroke: #5A7088; stroke-width: 1.0;" x1="256" x2="456" y1="123.6953" y2="123.6953"/><text fill="#000000" font-family="sans-serif" font-size="13" lengthAdjust="spacingAndGlyphs" textLength="135" x="268" y="118.6294">take frame from pool</text><polygon fill="#5A7088" points="262,148.8281,252,152.8281,262,156.8281,258,152.8281" style="stroke: #5A7088; stroke-width: 1.0;"/><line style="stroke: #5A7088; stroke-width: 1.0;" x1="256" x2="456" y1="152.8281" y2="152.8281"/><text fill="#000000" font-family="sans-serif" font-size="13" lengthAdjust="spacingAndGlyphs" textLength="124" x="268" y="147.7622">encode HDLC fields</text><polygon fill="#5A7088" points="580,177.9609,590,181.9609,580,185.9609,584,181.9609" style="stroke: #5A7088; stroke-width: 1.0;"/><line style="stroke: #5A7088; stroke-width: 1.0;" x1="457" x2="586" y1="181.9609" y2="181.9609"/><text fill="#000000" font-family="sans-serif" font-size="13" lengthAdjust="spacingAndGlyphs" textLength="111" x="464" y="176.895">tx_submit(frame)</text><polygon fill="#5A7088" points="782,207.0938,792,211.0938,782,215.0938,786,211.0938" style="stroke: #5A7088; stroke-width: 1.0;"/><line style="stroke: #5A7088; stroke-width: 1.0;" x1="592" x2="788" y1="211.0938" y2="211.0938"/><text fill="#000000" font-family="sans-serif" font-size="13" lengthAdjust="spacingAndGlyphs" textLength="49" x="599" y="206.0278">start TX</text><polygon fill="#5A7088" points="603,236.2266,593,240.2266,603,244.2266,599,240.2266" style="stroke: #5A7088; stroke-width: 1.0;"/><line style="stroke: #5A7088; stroke-width: 1.0; stroke-dasharray: 2.0,2.0;" x1="597" x2="793" y1="240.2266" y2="240.2266"/><text fill="#000000" font-family="sans-serif" font-size="13" lengthAdjust="spacingAndGlyphs" textLength="178" x="609" y="235.1606">TX complete interrupt/event</text><polygon fill="#5A7088" points="262,265.3594,252,269.3594,262,273.3594,258,269.3594" style="stroke: #5A7088; stroke-width: 1.0;"/><line style="stroke: #5A7088; stroke-width: 1.0; stroke-dasharray: 2.0,2.0;" x1="256" x2="591" y1="269.3594" y2="269.3594"/><text fill="#000000" font-family="sans-serif" font-size="13" lengthAdjust="spacingAndGlyphs" textLength="166" x="268" y="264.2935">tx_callback(frame, status)</text><polygon fill="#5A7088" points="782,294.4922,792,298.4922,782,302.4922,786,298.4922" style="stroke: #5A7088; stroke-width: 1.0;"/><line style="stroke: #5A7088; stroke-width: 1.0;" x1="592" x2="788" y1="298.4922" y2="298.4922"/><text fill="#000000" font-family="sans-serif" font-size="13" lengthAdjust="spacingAndGlyphs" textLength="168" x="599" y="293.4263">receive bytes / DMA buffer</text><polygon fill="#5A7088" points="603,323.625,593,327.625,603,331.625,599,327.625" style="stroke: #5A7088; stroke-width: 1.0;"/><line style="stroke: #5A7088; stroke-width: 1.0; stroke-dasharray: 2.0,2.0;" x1="597" x2="793" y1="327.625" y2="327.625"/><text fill="#000000" font-family="sans-serif" font-size="13" lengthAdjust="spacingAndGlyphs" textLength="155" x="609" y="322.5591">RX ready interrupt/event</text><polygon fill="#5A7088" points="262,352.7578,252,356.7578,262,360.7578,258,356.7578" style="stroke: #5A7088; stroke-width: 1.0;"/><line style="stroke: #5A7088; stroke-width: 1.0; stroke-dasharray: 2.0,2.0;" x1="256" x2="591" y1="356.7578" y2="356.7578"/><text fill="#000000" font-family="sans-serif" font-size="13" lengthAdjust="spacingAndGlyphs" textLength="175" x="268" y="351.6919">rx_callback(buf, len, status)</text><line style="stroke: #5A7088; stroke-width: 1.0;" x1="251" x2="293" y1="385.8906" y2="385.8906"/><line style="stroke: #5A7088; stroke-width: 1.0;" x1="293" x2="293" y1="385.8906" y2="398.8906"/><line style="stroke: #5A7088; stroke-width: 1.0;" x1="252" x2="293" y1="398.8906" y2="398.8906"/><polygon fill="#5A7088" points="262,394.8906,252,398.8906,262,402.8906,258,398.8906" style="stroke: #5A7088; stroke-width: 1.0;"/><text fill="#000000" font-family="sans-serif" font-size="13" lengthAdjust="spacingAndGlyphs" textLength="192" x="258" y="380.8247">parse frame and update state</text><polygon fill="#5A7088" points="64,424.0234,54,428.0234,64,432.0234,60,428.0234" style="stroke: #5A7088; stroke-width: 1.0;"/><line style="stroke: #5A7088; stroke-width: 1.0; stroke-dasharray: 2.0,2.0;" x1="58" x2="250" y1="428.0234" y2="428.0234"/><text fill="#000000" font-family="sans-serif" font-size="13" lengthAdjust="spacingAndGlyphs" textLength="168" x="70" y="422.9575">wake readers / app events</text><!--MD5=[cc594412c5e27e48790b375cc0b4c418]
@startuml
hide footbox

skinparam backgroundColor transparent
skinparam shadowing false
skinparam ArrowColor #5a7088
skinparam SequenceLifeLineBorderColor #5a7088
skinparam SequenceLifeLineBackgroundColor #f7fbff
skinparam ParticipantBorderColor #4d6a86
skinparam ParticipantBackgroundColor #f7fbff
skinparam ParticipantFontColor #1f2f3d
skinparam NoteBorderColor #96a7b8
skinparam NoteBackgroundColor #fffdf3

participant "App thread" as App
participant "Station/Core" as Core
participant "TX runner" as Tx
participant "Driver/Stream" as Drv
participant Hardware as Hw

App -> Core: ioHdlcWrite(peer, data, len)
Core -> Tx: signal TX work
Tx -> Core: take frame from pool
Tx -> Core: encode HDLC fields
Tx -> Drv: tx_submit(frame)
Drv -> Hw: start TX
Hw - -> Drv: TX complete interrupt/event
Drv - -> Core: tx_callback(frame, status)
Drv -> Hw: receive bytes / DMA buffer
Hw - -> Drv: RX ready interrupt/event
Drv - -> Core: rx_callback(buf, len, status)
Core -> Core: parse frame and update state
Core - -> App: wake readers / app events

@enduml

PlantUML version 1.2020.02(Sun Mar 01 11:22:07 CET 2020)
(GPL source distribution)
Java Runtime: OpenJDK Runtime Environment
JVM: OpenJDK 64-Bit Server VM
Java Version: 21.0.10+7-Ubuntu-122.04
Operating System: Linux
Default Encoding: UTF-8
Language: it
Country: IT
--></g></svg>