<?xml version="1.0" encoding="UTF-8" standalone="no"?>
<!DOCTYPE svg PUBLIC "-//W3C//DTD SVG 1.1//EN"
 "http://www.w3.org/Graphics/SVG/1.1/DTD/svg11.dtd">
<!-- Generated by graphviz version 2.43.0 (0)
 -->
<!-- Title: iohdlc_tx_data_flow Pages: 1 -->
<svg width="171pt" height="499pt"
 viewBox="0.00 0.00 171.00 499.00" xmlns="http://www.w3.org/2000/svg" xmlns:xlink="http://www.w3.org/1999/xlink">
<g id="graph0" class="graph" transform="scale(1 1) rotate(0) translate(4 495)">
<title>iohdlc_tx_data_flow</title>
<!-- App -->
<g id="node1" class="node">
<title>App</title>
<path fill="#f7fbff" stroke="#4d6a86" stroke-width="1.2" d="M121.5,-491C121.5,-491 41.5,-491 41.5,-491 35.5,-491 29.5,-485 29.5,-479 29.5,-479 29.5,-467 29.5,-467 29.5,-461 35.5,-455 41.5,-455 41.5,-455 121.5,-455 121.5,-455 127.5,-455 133.5,-461 133.5,-467 133.5,-467 133.5,-479 133.5,-479 133.5,-485 127.5,-491 121.5,-491"/>
<text text-anchor="middle" x="81.5" y="-476.2" font-family="Helvetica,sans-Serif" font-size="11.00">Application</text>
<text text-anchor="middle" x="81.5" y="-464.2" font-family="Helvetica,sans-Serif" font-size="11.00">ioHdlcWrite(...)</text>
</g>
<!-- Station -->
<g id="node2" class="node">
<title>Station</title>
<path fill="#f7fbff" stroke="#4d6a86" stroke-width="1.2" d="M139.5,-426C139.5,-426 23.5,-426 23.5,-426 17.5,-426 11.5,-420 11.5,-414 11.5,-414 11.5,-402 11.5,-402 11.5,-396 17.5,-390 23.5,-390 23.5,-390 139.5,-390 139.5,-390 145.5,-390 151.5,-396 151.5,-402 151.5,-402 151.5,-414 151.5,-414 151.5,-420 145.5,-426 139.5,-426"/>
<text text-anchor="middle" x="81.5" y="-411.2" font-family="Helvetica,sans-Serif" font-size="11.00">Station API</text>
<text text-anchor="middle" x="81.5" y="-399.2" font-family="Helvetica,sans-Serif" font-size="11.00">validate and enqueue</text>
</g>
<!-- App&#45;&gt;Station -->
<g id="edge1" class="edge">
<title>App&#45;&gt;Station</title>
<path fill="none" stroke="#5a7088" stroke-width="1.1" d="M81.5,-454.89C81.5,-454.89 81.5,-434.01 81.5,-434.01"/>
<polygon fill="#5a7088" stroke="#5a7088" stroke-width="1.1" points="84.3,-434.01 81.5,-426.01 78.7,-434.01 84.3,-434.01"/>
</g>
<!-- TxThread -->
<g id="node3" class="node">
<title>TxThread</title>
<path fill="#f7fbff" stroke="#4d6a86" stroke-width="1.2" d="M123.5,-361C123.5,-361 39.5,-361 39.5,-361 33.5,-361 27.5,-355 27.5,-349 27.5,-349 27.5,-337 27.5,-337 27.5,-331 33.5,-325 39.5,-325 39.5,-325 123.5,-325 123.5,-325 129.5,-325 135.5,-331 135.5,-337 135.5,-337 135.5,-349 135.5,-349 135.5,-355 129.5,-361 123.5,-361"/>
<text text-anchor="middle" x="81.5" y="-346.2" font-family="Helvetica,sans-Serif" font-size="11.00">TX runner entry</text>
<text text-anchor="middle" x="81.5" y="-334.2" font-family="Helvetica,sans-Serif" font-size="11.00">ioHdlcTxEntry()</text>
</g>
<!-- Station&#45;&gt;TxThread -->
<g id="edge2" class="edge">
<title>Station&#45;&gt;TxThread</title>
<path fill="none" stroke="#5a7088" stroke-width="1.1" d="M81.5,-389.89C81.5,-389.89 81.5,-369.01 81.5,-369.01"/>
<polygon fill="#5a7088" stroke="#5a7088" stroke-width="1.1" points="84.3,-369.01 81.5,-361.01 78.7,-369.01 84.3,-369.01"/>
</g>
<!-- Frame -->
<g id="node4" class="node">
<title>Frame</title>
<path fill="#f7fbff" stroke="#4d6a86" stroke-width="1.2" d="M151,-296C151,-296 12,-296 12,-296 6,-296 0,-290 0,-284 0,-284 0,-272 0,-272 0,-266 6,-260 12,-260 12,-260 151,-260 151,-260 157,-260 163,-266 163,-272 163,-272 163,-284 163,-284 163,-290 157,-296 151,-296"/>
<text text-anchor="middle" x="81.5" y="-281.2" font-family="Helvetica,sans-Serif" font-size="11.00">Frame preparation</text>
<text text-anchor="middle" x="81.5" y="-269.2" font-family="Helvetica,sans-Serif" font-size="11.00">build fields + tx_snapshot</text>
</g>
<!-- TxThread&#45;&gt;Frame -->
<g id="edge3" class="edge">
<title>TxThread&#45;&gt;Frame</title>
<path fill="none" stroke="#5a7088" stroke-width="1.1" d="M81.5,-324.89C81.5,-324.89 81.5,-304.01 81.5,-304.01"/>
<polygon fill="#5a7088" stroke="#5a7088" stroke-width="1.1" points="84.3,-304.01 81.5,-296.01 78.7,-304.01 84.3,-304.01"/>
</g>
<!-- Policy -->
<g id="node5" class="node">
<title>Policy</title>
<path fill="#f7fbff" stroke="#4d6a86" stroke-width="1.2" d="M135,-231C135,-231 28,-231 28,-231 22,-231 16,-225 16,-219 16,-219 16,-207 16,-207 16,-201 22,-195 28,-195 28,-195 135,-195 135,-195 141,-195 147,-201 147,-207 147,-207 147,-219 147,-219 147,-225 141,-231 135,-231"/>
<text text-anchor="middle" x="81.5" y="-216.2" font-family="Helvetica,sans-Serif" font-size="11.00">Software driver</text>
<text text-anchor="middle" x="81.5" y="-204.2" font-family="Helvetica,sans-Serif" font-size="11.00">framing + TX queue</text>
</g>
<!-- Frame&#45;&gt;Policy -->
<g id="edge4" class="edge">
<title>Frame&#45;&gt;Policy</title>
<path fill="none" stroke="#5a7088" stroke-width="1.1" d="M81.5,-259.89C81.5,-259.89 81.5,-239.01 81.5,-239.01"/>
<polygon fill="#5a7088" stroke="#5a7088" stroke-width="1.1" points="84.3,-239.01 81.5,-231.01 78.7,-239.01 84.3,-239.01"/>
</g>
<!-- Driver -->
<g id="node6" class="node">
<title>Driver</title>
<path fill="#f7fbff" stroke="#4d6a86" stroke-width="1.2" d="M135.5,-166C135.5,-166 27.5,-166 27.5,-166 21.5,-166 15.5,-160 15.5,-154 15.5,-154 15.5,-142 15.5,-142 15.5,-136 21.5,-130 27.5,-130 27.5,-130 135.5,-130 135.5,-130 141.5,-130 147.5,-136 147.5,-142 147.5,-142 147.5,-154 147.5,-154 147.5,-160 141.5,-166 135.5,-166"/>
<text text-anchor="middle" x="81.5" y="-151.2" font-family="Helvetica,sans-Serif" font-size="11.00">Physical submission</text>
<text text-anchor="middle" x="81.5" y="-139.2" font-family="Helvetica,sans-Serif" font-size="11.00">tx_submit_frame(fp)</text>
</g>
<!-- Policy&#45;&gt;Driver -->
<g id="edge5" class="edge">
<title>Policy&#45;&gt;Driver</title>
<path fill="none" stroke="#5a7088" stroke-width="1.1" d="M81.5,-194.89C81.5,-194.89 81.5,-174.01 81.5,-174.01"/>
<polygon fill="#5a7088" stroke="#5a7088" stroke-width="1.1" points="84.3,-174.01 81.5,-166.01 78.7,-174.01 84.3,-174.01"/>
</g>
<!-- Backend -->
<g id="node7" class="node">
<title>Backend</title>
<path fill="#f7fbff" stroke="#4d6a86" stroke-width="1.2" d="M137,-101C137,-101 26,-101 26,-101 20,-101 14,-95 14,-89 14,-89 14,-77 14,-77 14,-71 20,-65 26,-65 26,-65 137,-65 137,-65 143,-65 149,-71 149,-77 149,-77 149,-89 149,-89 149,-95 143,-101 137,-101"/>
<text text-anchor="middle" x="81.5" y="-86.2" font-family="Helvetica,sans-Serif" font-size="11.00">Stream adapter</text>
<text text-anchor="middle" x="81.5" y="-74.2" font-family="Helvetica,sans-Serif" font-size="11.00">current transfer only</text>
</g>
<!-- Driver&#45;&gt;Backend -->
<g id="edge6" class="edge">
<title>Driver&#45;&gt;Backend</title>
<path fill="none" stroke="#5a7088" stroke-width="1.1" d="M81.5,-129.89C81.5,-129.89 81.5,-109.01 81.5,-109.01"/>
<polygon fill="#5a7088" stroke="#5a7088" stroke-width="1.1" points="84.3,-109.01 81.5,-101.01 78.7,-109.01 84.3,-109.01"/>
</g>
<!-- Wire -->
<g id="node8" class="node">
<title>Wire</title>
<path fill="#f7fbff" stroke="#4d6a86" stroke-width="1.2" d="M123,-36C123,-36 40,-36 40,-36 34,-36 28,-30 28,-24 28,-24 28,-12 28,-12 28,-6 34,0 40,0 40,0 123,0 123,0 129,0 135,-6 135,-12 135,-12 135,-24 135,-24 135,-30 129,-36 123,-36"/>
<text text-anchor="middle" x="81.5" y="-15.2" font-family="Helvetica,sans-Serif" font-size="11.00">Transport / wire</text>
</g>
<!-- Backend&#45;&gt;Wire -->
<g id="edge7" class="edge">
<title>Backend&#45;&gt;Wire</title>
<path fill="none" stroke="#5a7088" stroke-width="1.1" d="M81.5,-64.89C81.5,-64.89 81.5,-44.01 81.5,-44.01"/>
<polygon fill="#5a7088" stroke="#5a7088" stroke-width="1.1" points="84.3,-44.01 81.5,-36.01 78.7,-44.01 84.3,-44.01"/>
</g>
</g>
</svg>
