<?xml version="1.0" encoding="UTF-8" standalone="no"?>
<!DOCTYPE svg PUBLIC "-//W3C//DTD SVG 1.1//EN"
 "http://www.w3.org/Graphics/SVG/1.1/DTD/svg11.dtd">
<!-- Generated by graphviz version 2.43.0 (0)
 -->
<!-- Title: iohdlc_tx_data_flow Pages: 1 -->
<svg width="176pt" height="499pt"
 viewBox="0.00 0.00 176.00 499.00" xmlns="http://www.w3.org/2000/svg" xmlns:xlink="http://www.w3.org/1999/xlink">
<g id="graph0" class="graph" transform="scale(1 1) rotate(0) translate(4 495)">
<title>iohdlc_tx_data_flow</title>
<!-- App -->
<g id="node1" class="node">
<title>App</title>
<path fill="#f7fbff" stroke="#4d6a86" stroke-width="1.2" d="M124,-491C124,-491 44,-491 44,-491 38,-491 32,-485 32,-479 32,-479 32,-467 32,-467 32,-461 38,-455 44,-455 44,-455 124,-455 124,-455 130,-455 136,-461 136,-467 136,-467 136,-479 136,-479 136,-485 130,-491 124,-491"/>
<text text-anchor="middle" x="84" y="-476.2" font-family="Helvetica,sans-Serif" font-size="11.00">Application</text>
<text text-anchor="middle" x="84" y="-464.2" font-family="Helvetica,sans-Serif" font-size="11.00">ioHdlcWrite(...)</text>
</g>
<!-- Station -->
<g id="node2" class="node">
<title>Station</title>
<path fill="#f7fbff" stroke="#4d6a86" stroke-width="1.2" d="M142,-426C142,-426 26,-426 26,-426 20,-426 14,-420 14,-414 14,-414 14,-402 14,-402 14,-396 20,-390 26,-390 26,-390 142,-390 142,-390 148,-390 154,-396 154,-402 154,-402 154,-414 154,-414 154,-420 148,-426 142,-426"/>
<text text-anchor="middle" x="84" y="-411.2" font-family="Helvetica,sans-Serif" font-size="11.00">Station API</text>
<text text-anchor="middle" x="84" y="-399.2" font-family="Helvetica,sans-Serif" font-size="11.00">validate and enqueue</text>
</g>
<!-- App&#45;&gt;Station -->
<g id="edge1" class="edge">
<title>App&#45;&gt;Station</title>
<path fill="none" stroke="#5a7088" stroke-width="1.1" d="M84,-454.89C84,-454.89 84,-434.01 84,-434.01"/>
<polygon fill="#5a7088" stroke="#5a7088" stroke-width="1.1" points="86.8,-434.01 84,-426.01 81.2,-434.01 86.8,-434.01"/>
</g>
<!-- TxThread -->
<g id="node3" class="node">
<title>TxThread</title>
<path fill="#f7fbff" stroke="#4d6a86" stroke-width="1.2" d="M126,-361C126,-361 42,-361 42,-361 36,-361 30,-355 30,-349 30,-349 30,-337 30,-337 30,-331 36,-325 42,-325 42,-325 126,-325 126,-325 132,-325 138,-331 138,-337 138,-337 138,-349 138,-349 138,-355 132,-361 126,-361"/>
<text text-anchor="middle" x="84" y="-346.2" font-family="Helvetica,sans-Serif" font-size="11.00">TX runner entry</text>
<text text-anchor="middle" x="84" y="-334.2" font-family="Helvetica,sans-Serif" font-size="11.00">ioHdlcTxEntry()</text>
</g>
<!-- Station&#45;&gt;TxThread -->
<g id="edge2" class="edge">
<title>Station&#45;&gt;TxThread</title>
<path fill="none" stroke="#5a7088" stroke-width="1.1" d="M84,-389.89C84,-389.89 84,-369.01 84,-369.01"/>
<polygon fill="#5a7088" stroke="#5a7088" stroke-width="1.1" points="86.8,-369.01 84,-361.01 81.2,-369.01 86.8,-369.01"/>
</g>
<!-- Frame -->
<g id="node4" class="node">
<title>Frame</title>
<path fill="#f7fbff" stroke="#4d6a86" stroke-width="1.2" d="M156,-296C156,-296 12,-296 12,-296 6,-296 0,-290 0,-284 0,-284 0,-272 0,-272 0,-266 6,-260 12,-260 12,-260 156,-260 156,-260 162,-260 168,-266 168,-272 168,-272 168,-284 168,-284 168,-290 162,-296 156,-296"/>
<text text-anchor="middle" x="84" y="-281.2" font-family="Helvetica,sans-Serif" font-size="11.00">Frame preparation</text>
<text text-anchor="middle" x="84" y="-269.2" font-family="Helvetica,sans-Serif" font-size="11.00">take frame and build fields</text>
</g>
<!-- TxThread&#45;&gt;Frame -->
<g id="edge3" class="edge">
<title>TxThread&#45;&gt;Frame</title>
<path fill="none" stroke="#5a7088" stroke-width="1.1" d="M84,-324.89C84,-324.89 84,-304.01 84,-304.01"/>
<polygon fill="#5a7088" stroke="#5a7088" stroke-width="1.1" points="86.8,-304.01 84,-296.01 81.2,-304.01 86.8,-304.01"/>
</g>
<!-- Policy -->
<g id="node5" class="node">
<title>Policy</title>
<path fill="#f7fbff" stroke="#4d6a86" stroke-width="1.2" d="M149,-231C149,-231 19,-231 19,-231 13,-231 7,-225 7,-219 7,-219 7,-207 7,-207 7,-201 13,-195 19,-195 19,-195 149,-195 149,-195 155,-195 161,-201 161,-207 161,-207 161,-219 161,-219 161,-225 155,-231 149,-231"/>
<text text-anchor="middle" x="84" y="-216.2" font-family="Helvetica,sans-Serif" font-size="11.00">Driver policy</text>
<text text-anchor="middle" x="84" y="-204.2" font-family="Helvetica,sans-Serif" font-size="11.00">FFF / transparency / FCS</text>
</g>
<!-- Frame&#45;&gt;Policy -->
<g id="edge4" class="edge">
<title>Frame&#45;&gt;Policy</title>
<path fill="none" stroke="#5a7088" stroke-width="1.1" d="M84,-259.89C84,-259.89 84,-239.01 84,-239.01"/>
<polygon fill="#5a7088" stroke="#5a7088" stroke-width="1.1" points="86.8,-239.01 84,-231.01 81.2,-239.01 86.8,-239.01"/>
</g>
<!-- Driver -->
<g id="node6" class="node">
<title>Driver</title>
<path fill="#f7fbff" stroke="#4d6a86" stroke-width="1.2" d="M138.5,-166C138.5,-166 29.5,-166 29.5,-166 23.5,-166 17.5,-160 17.5,-154 17.5,-154 17.5,-142 17.5,-142 17.5,-136 23.5,-130 29.5,-130 29.5,-130 138.5,-130 138.5,-130 144.5,-130 150.5,-136 150.5,-142 150.5,-142 150.5,-154 150.5,-154 150.5,-160 144.5,-166 138.5,-166"/>
<text text-anchor="middle" x="84" y="-151.2" font-family="Helvetica,sans-Serif" font-size="11.00">Software driver</text>
<text text-anchor="middle" x="84" y="-139.2" font-family="Helvetica,sans-Serif" font-size="11.00">framed HDLC output</text>
</g>
<!-- Policy&#45;&gt;Driver -->
<g id="edge5" class="edge">
<title>Policy&#45;&gt;Driver</title>
<path fill="none" stroke="#5a7088" stroke-width="1.1" d="M84,-194.89C84,-194.89 84,-174.01 84,-174.01"/>
<polygon fill="#5a7088" stroke="#5a7088" stroke-width="1.1" points="86.8,-174.01 84,-166.01 81.2,-174.01 86.8,-174.01"/>
</g>
<!-- Backend -->
<g id="node7" class="node">
<title>Backend</title>
<path fill="#f7fbff" stroke="#4d6a86" stroke-width="1.2" d="M127,-101C127,-101 41,-101 41,-101 35,-101 29,-95 29,-89 29,-89 29,-77 29,-77 29,-71 35,-65 41,-65 41,-65 127,-65 127,-65 133,-65 139,-71 139,-77 139,-77 139,-89 139,-89 139,-95 133,-101 127,-101"/>
<text text-anchor="middle" x="84" y="-86.2" font-family="Helvetica,sans-Serif" font-size="11.00">Stream backend</text>
<text text-anchor="middle" x="84" y="-74.2" font-family="Helvetica,sans-Serif" font-size="11.00">stream port ops</text>
</g>
<!-- Driver&#45;&gt;Backend -->
<g id="edge6" class="edge">
<title>Driver&#45;&gt;Backend</title>
<path fill="none" stroke="#5a7088" stroke-width="1.1" d="M84,-129.89C84,-129.89 84,-109.01 84,-109.01"/>
<polygon fill="#5a7088" stroke="#5a7088" stroke-width="1.1" points="86.8,-109.01 84,-101.01 81.2,-109.01 86.8,-109.01"/>
</g>
<!-- Wire -->
<g id="node8" class="node">
<title>Wire</title>
<path fill="#f7fbff" stroke="#4d6a86" stroke-width="1.2" d="M125.5,-36C125.5,-36 42.5,-36 42.5,-36 36.5,-36 30.5,-30 30.5,-24 30.5,-24 30.5,-12 30.5,-12 30.5,-6 36.5,0 42.5,0 42.5,0 125.5,0 125.5,0 131.5,0 137.5,-6 137.5,-12 137.5,-12 137.5,-24 137.5,-24 137.5,-30 131.5,-36 125.5,-36"/>
<text text-anchor="middle" x="84" y="-15.2" font-family="Helvetica,sans-Serif" font-size="11.00">Transport / wire</text>
</g>
<!-- Backend&#45;&gt;Wire -->
<g id="edge7" class="edge">
<title>Backend&#45;&gt;Wire</title>
<path fill="none" stroke="#5a7088" stroke-width="1.1" d="M84,-64.89C84,-64.89 84,-44.01 84,-44.01"/>
<polygon fill="#5a7088" stroke="#5a7088" stroke-width="1.1" points="86.8,-44.01 84,-36.01 81.2,-44.01 86.8,-44.01"/>
</g>
</g>
</svg>
